<svg xmlns="http://www.w3.org/2000/svg" viewBox="0 0 500 500"><g id="freepik--background-complete--inject-201"><rect x="402.07" y="56.04" width="35.16" height="11.19" transform="translate(839.3 123.27) rotate(180)" style="fill:#ebebeb"></rect><path d="M286.33,370.16H250.17V358h36.16Zm-35.16-1h34.16V359H251.17Z" style="fill:#ebebeb"></path><path d="M421.68,41.93c5.86-.1,20.63-.35,26.29-.41l8.87,0h.45v.45l0,11.19v.5h-.5l-17.58-.07c-4.37,0-13.2-.13-17.58-.19h-.24v-.24l.23-11.19Zm0,0,.24,11.19-.24-.23,8.79-.11c5.58-.08,20.6-.14,26.37-.16l-.5.5,0-11.19.46.46-8.71,0c-5.57-.07-20.68-.32-26.45-.42Z" style="fill:#ebebeb"></path><path d="M252.38,203.42c5.85-.1,20.62-.35,26.29-.41l8.86,0H288v.46l0,11.19v.5h-.51L270,215c-4.38,0-13.21-.13-17.58-.19h-.25v-.23l.24-11.19Zm0,0,.23,11.19-.23-.24c4.38-.06,13.19-.15,17.58-.19l17.57-.07-.5.5.05-11.19.45.45-8.71,0c-5.57-.06-20.68-.31-26.44-.41Z" style="fill:#ebebeb"></path><path d="M272,189.31c5.86-.1,20.63-.35,26.29-.41l8.87-.05h.45v.46l0,11.19v.5h-.5l-17.58-.07c-4.38,0-13.2-.13-17.58-.19h-.24v-.23l.24-11.19Zm0,0,.24,11.19-.24-.24c4.38-.06,13.19-.15,17.58-.19l17.58-.07-.5.5,0-11.19.46.46-8.71-.05c-5.58-.06-20.69-.31-26.45-.41Z" style="fill:#ebebeb"></path><rect x="291.52" y="203.42" width="35.16" height="11.19" transform="translate(618.2 418.03) rotate(180)" style="fill:#ebebeb"></rect><rect x="43.16" y="41.93" width="35.16" height="11.19" transform="translate(121.48 95.06) rotate(180)" style="fill:#ebebeb"></rect><rect x="62.77" y="433.89" width="35.16" height="11.19" transform="translate(160.7 878.97) rotate(180)" style="fill:#ebebeb"></rect><path d="M43.16,419.78c5.86-.1,20.63-.35,26.29-.41l8.87,0h.45v.46l0,11.19v.5h-.5l-17.58-.07c-4.38,0-13.2-.13-17.58-.19h-.24V431l.24-11.19Zm0,0L43.4,431l-.24-.24c4.39-.06,13.19-.15,17.58-.19l17.58-.07-.5.5,0-11.19.46.46-8.71,0c-5.58-.07-20.69-.32-26.45-.42Z" style="fill:#ebebeb"></path><path d="M421.68,433.89c5.86-.1,20.63-.35,26.29-.41l8.87,0h.45v.46l0,11.19v.5h-.5l-17.58-.07c-4.37,0-13.2-.13-17.58-.19h-.24v-.24l.23-11.19Zm0,0,.24,11.19-.24-.24c4.39-.06,13.2-.15,17.58-.19l17.58-.07-.5.5,0-11.19.46.46-8.71-.05c-5.57-.06-20.68-.31-26.45-.41Z" style="fill:#ebebeb"></path><rect x="227.85" y="62.23" width="218.98" height="100.52" style="fill:#fff"></rect><path d="M449.51,165.43H225.16V59.54H449.51Zm-219-5.37H444.15V64.91H230.53Z" style="fill:#ebebeb"></path><path d="M322,121.84a.48.48,0,0,1-.26-.07l-11.6-6.7a.51.51,0,0,1-.26-.44v-13.4a.51.51,0,0,1,.26-.45l11.6-6.7a.52.52,0,0,1,.51,0l11.61,6.7a.5.5,0,0,1,.25.45v13.4a.5.5,0,0,1-.25.44l-11.61,6.7A.45.45,0,0,1,322,121.84Zm-11.1-7.51,11.1,6.41,11.09-6.41V101.52L322,95.12l-11.1,6.4Z" style="fill:#ebebeb"></path><path d="M345.17,121.84a.48.48,0,0,1-.26-.07l-11.6-6.7a.51.51,0,0,1-.26-.44v-13.4a.51.51,0,0,1,.26-.45l11.6-6.7a.52.52,0,0,1,.51,0l11.61,6.7a.51.51,0,0,1,.26.45v13.4a.51.51,0,0,1-.26.44l-11.61,6.7A.43.43,0,0,1,345.17,121.84Zm-11.1-7.51,11.1,6.41,11.09-6.41V101.52l-11.09-6.4-11.1,6.4Z" style="fill:#ebebeb"></path><path d="M345.17,95a.51.51,0,0,1-.51-.51v-8a.51.51,0,0,1,1,0v8A.51.51,0,0,1,345.17,95Z" style="fill:#ebebeb"></path><path d="M356.77,101.74a.51.51,0,0,1-.24-1l6.75-3.7a.5.5,0,0,1,.69.2.51.51,0,0,1-.2.7L357,101.67A.45.45,0,0,1,356.77,101.74Z" style="fill:#ebebeb"></path><path d="M312.47,113.64a.51.51,0,0,1-.52-.51V102.9a.52.52,0,0,1,1,0v10.23A.51.51,0,0,1,312.47,113.64Z" style="fill:#ebebeb"></path><path d="M336.42,113.64a.51.51,0,0,1-.51-.51V102.9a.51.51,0,1,1,1,0v10.23A.51.51,0,0,1,336.42,113.64Z" style="fill:#ebebeb"></path><path d="M331.2,102.86a.59.59,0,0,1-.26-.07l-8.84-5.15a.51.51,0,0,1-.18-.7.51.51,0,0,1,.7-.18l8.84,5.14a.52.52,0,0,1,.18.7A.51.51,0,0,1,331.2,102.86Z" style="fill:#ebebeb"></path><path d="M354.26,102.86a.59.59,0,0,1-.26-.07l-8.84-5.15a.51.51,0,0,1-.19-.7.52.52,0,0,1,.7-.18l8.84,5.14a.51.51,0,0,1,.19.7A.53.53,0,0,1,354.26,102.86Z" style="fill:#ebebeb"></path><path d="M262.57,121.84a.45.45,0,0,1-.25-.07l-11.61-6.7a.5.5,0,0,1-.25-.44v-13.4a.5.5,0,0,1,.25-.45l11.61-6.7a.52.52,0,0,1,.51,0l11.6,6.7a.51.51,0,0,1,.26.45v13.4a.51.51,0,0,1-.26.44l-11.6,6.7A.48.48,0,0,1,262.57,121.84Zm-11.09-7.51,11.09,6.41,11.1-6.41V101.52l-11.1-6.4-11.09,6.4Z" style="fill:#ebebeb"></path><path d="M262.57,95a.51.51,0,0,1-.51-.51v-8a.51.51,0,0,1,.51-.51.51.51,0,0,1,.51.51v8A.51.51,0,0,1,262.57,95Z" style="fill:#ebebeb"></path><path d="M284.62,93.25a.51.51,0,0,1-.51-.51v-8a.51.51,0,1,1,1,0v8A.51.51,0,0,1,284.62,93.25Z" style="fill:#ebebeb"></path><path d="M274.18,101.74a.51.51,0,0,1-.45-.27.51.51,0,0,1,.2-.69l6.76-3.7a.5.5,0,0,1,.69.2.52.52,0,0,1-.2.7l-6.76,3.69A.42.42,0,0,1,274.18,101.74Z" style="fill:#ebebeb"></path><path d="M294.92,101.74a.45.45,0,0,1-.25-.07L287.92,98a.51.51,0,0,1-.2-.7.5.5,0,0,1,.69-.2l6.75,3.7a.51.51,0,0,1,.21.69A.53.53,0,0,1,294.92,101.74Z" style="fill:#ebebeb"></path><path d="M272,113.64a.51.51,0,0,1-.51-.51V102.9a.51.51,0,0,1,1,0v10.23A.51.51,0,0,1,272,113.64Z" style="fill:#ebebeb"></path><path d="M253.55,102.86a.5.5,0,0,1-.44-.26.52.52,0,0,1,.18-.7l8.85-5.14a.51.51,0,1,1,.51.88l-8.84,5.15A.59.59,0,0,1,253.55,102.86Z" style="fill:#ebebeb"></path><path d="M404.63,121.84a.45.45,0,0,1-.25-.07l-11.61-6.7a.5.5,0,0,1-.25-.44v-13.4a.5.5,0,0,1,.25-.45l11.61-6.7a.52.52,0,0,1,.51,0l11.6,6.7a.51.51,0,0,1,.26.45v13.4a.51.51,0,0,1-.26.44l-11.6,6.7A.48.48,0,0,1,404.63,121.84Zm-11.09-7.51,11.09,6.41,11.1-6.41V101.52l-11.1-6.4-11.09,6.4Z" style="fill:#ebebeb"></path><path d="M416.24,101.74a.51.51,0,0,1-.45-.27.5.5,0,0,1,.2-.69l6.76-3.7a.5.5,0,0,1,.69.2.52.52,0,0,1-.2.7l-6.76,3.69A.42.42,0,0,1,416.24,101.74Z" style="fill:#ebebeb"></path><path d="M395.61,113.64a.51.51,0,0,1-.51-.51V102.9a.51.51,0,1,1,1,0v10.23A.51.51,0,0,1,395.61,113.64Z" style="fill:#ebebeb"></path><path d="M414,102.86a.59.59,0,0,1-.26-.07l-8.84-5.15a.51.51,0,0,1-.19-.7.52.52,0,0,1,.7-.18l8.84,5.14a.51.51,0,0,1-.25,1Z" style="fill:#ebebeb"></path><path d="M405.13,119.31a.51.51,0,0,1-.25-1l8.84-5.14a.52.52,0,0,1,.7.18.51.51,0,0,1-.19.7l-8.84,5.15A.59.59,0,0,1,405.13,119.31Z" style="fill:#ebebeb"></path><rect x="251.32" y="131.76" width="40.45" height="1.48" style="fill:#dbdbdb"></rect><rect x="257.78" y="135.25" width="27.52" height="1.48" style="fill:#dbdbdb"></rect><rect x="316.72" y="132.54" width="40.45" height="1.48" style="fill:#dbdbdb"></rect><rect x="323.18" y="136.03" width="27.52" height="1.48" style="fill:#dbdbdb"></rect><rect x="383.78" y="131.76" width="40.45" height="1.48" style="fill:#dbdbdb"></rect><rect x="390.24" y="135.25" width="27.52" height="1.48" style="fill:#dbdbdb"></rect><circle cx="115.49" cy="83.38" r="32.74" transform="translate(10.68 179.83) rotate(-78.45)" style="fill:#ebebeb"></circle><circle cx="116.99" cy="84.1" r="31.24" transform="translate(15.39 186.27) rotate(-80.87)" style="fill:#dbdbdb"></circle><circle cx="116.99" cy="84.1" r="29.27" style="fill:#fff"></circle><path d="M145.59,77.89C132.27,86,110.36,99.22,98.12,106.48a29.31,29.31,0,0,1-8-10.76L130.61,58.2A29.26,29.26,0,0,1,145.59,77.89Z" style="fill:#ebebeb;opacity:0.5"></path><path d="M146.24,85.13a28.93,28.93,0,0,1-1.94,9.51L107.8,111.9a29,29,0,0,1-4.61-2C114.22,103.55,134.37,92,146.24,85.13Z" style="fill:#ebebeb;opacity:0.5"></path><rect x="116.71" y="56.96" width="0.57" height="4.44" style="fill:#c7c7c7"></rect><rect x="104.24" y="60.3" width="0.57" height="4.44" transform="translate(-17.26 60.63) rotate(-30)" style="fill:#c7c7c7"></rect><rect x="95.12" y="69.42" width="0.57" height="4.44" transform="translate(-14.35 118.44) rotate(-60)" style="fill:#c7c7c7"></rect><rect x="89.85" y="83.82" width="4.44" height="0.57" style="fill:#c7c7c7"></rect><rect x="93.19" y="96.28" width="4.44" height="0.57" transform="matrix(0.87, -0.5, 0.5, 0.87, -35.51, 60.65)" style="fill:#c7c7c7"></rect><rect x="102.31" y="105.41" width="4.44" height="0.57" transform="translate(-39.24 143.49) rotate(-60.05)" style="fill:#c7c7c7"></rect><rect x="116.71" y="106.81" width="0.57" height="4.44" style="fill:#c7c7c7"></rect><rect x="129.17" y="103.47" width="0.57" height="4.44" transform="matrix(0.87, -0.5, 0.5, 0.87, -35.5, 78.89)" style="fill:#c7c7c7"></rect><rect x="138.29" y="94.35" width="0.57" height="4.44" transform="translate(-14.35 168.28) rotate(-60)" style="fill:#c7c7c7"></rect><rect x="139.7" y="83.82" width="4.44" height="0.57" style="fill:#c7c7c7"></rect><rect x="136.36" y="71.36" width="4.44" height="0.57" transform="translate(-17.26 78.89) rotate(-30)" style="fill:#c7c7c7"></rect><rect x="127.23" y="62.24" width="4.44" height="0.57" transform="matrix(0.5, -0.87, 0.87, 0.5, 10.61, 143.41)" style="fill:#c7c7c7"></rect><polygon points="117.42 58.97 118.38 86.08 115.6 86.05 116.66 58.96 117.42 58.97" style="fill:#c7c7c7"></polygon><polygon points="134.3 74.65 116.06 86.29 114.74 83.85 133.94 73.99 134.3 74.65" style="fill:#a6a6a6"></polygon><path d="M117.94,84.1a1,1,0,1,1-1-.94A.95.95,0,0,1,117.94,84.1Z" style="fill:#c7c7c7"></path></g><g id="freepik--Floor--inject-201"><path d="M33.4,467.2c138.77-.62,294.43-.62,433.2,0-138.77.61-294.43.61-433.2,0Z" style="fill:#263238"></path></g><g id="freepik--speech-bubble-2--inject-201"><path d="M318.12,74.57a28.14,28.14,0,0,0,47,17.8l14.09,2.07-7.05-12.18a28.15,28.15,0,1,0-54.07-7.69Z" style="fill:#fff"></path><path d="M326.55,51.32A28.43,28.43,0,0,1,372.7,82.47l0-.48,7,12.2.51.9-1-.16-14.07-2.16.34-.1a28.52,28.52,0,0,1-13.93,6.88,25.53,25.53,0,0,1-3.9.4,27.1,27.1,0,0,1-11.49-1.88,28.07,28.07,0,0,1-6.79-3.78,32.41,32.41,0,0,1-3-2.52,32.23,32.23,0,0,1-2.55-2.93,28.31,28.31,0,0,1,2.75-37.52Zm-2.66,37.45a30.63,30.63,0,0,0,2.56,2.91,32,32,0,0,0,3,2.48,26.22,26.22,0,0,0,6.79,3.66,28.13,28.13,0,0,0,7.52,1.66,27.48,27.48,0,0,0,3.85,0A24.59,24.59,0,0,0,351.4,99a27.78,27.78,0,0,0,13.48-7l.14-.13.19,0,14.1,2-.51.75-7.08-12.15-.14-.23.1-.26a28.08,28.08,0,0,0,2-12.26,27.74,27.74,0,0,0-3.58-11.91,29,29,0,0,0-8.42-9.19A28,28,0,0,0,337.52,45a27.82,27.82,0,0,0-13.63,43.73Z" style="fill:#263238"></path><path d="M360.62,71.62A2.59,2.59,0,1,1,358,69,2.59,2.59,0,0,1,360.62,71.62Z" style="fill:#263238"></path><path d="M348.19,71.62A2.59,2.59,0,1,1,345.6,69,2.59,2.59,0,0,1,348.19,71.62Z" style="fill:#263238"></path><path d="M335.76,71.62a2.59,2.59,0,1,1-2.59-2.6A2.59,2.59,0,0,1,335.76,71.62Z" style="fill:#263238"></path></g><g id="freepik--speech-bubble-1--inject-201"><path d="M211.1,91.83a28.15,28.15,0,0,1-47,17.8L150,111.7,157,99.53a28.15,28.15,0,1,1,54.07-7.7Z" style="fill:#fff"></path><path d="M211.1,91.83a28.42,28.42,0,0,1-5.68,14.27,26.14,26.14,0,0,1-5.53,5.45,27.37,27.37,0,0,1-6.79,3.78,28.06,28.06,0,0,1-7.58,1.81,26.84,26.84,0,0,1-3.91.07,25.4,25.4,0,0,1-3.89-.4,28.52,28.52,0,0,1-13.93-6.88l.33.1-14.07,2.16-1,.16.52-.9,7-12.2,0,.48a28.47,28.47,0,0,1,1.74-25.09,28.78,28.78,0,0,1,8.81-9.39,28.71,28.71,0,0,1,24.75-3.33,28.78,28.78,0,0,1,10.85,6.66A28.32,28.32,0,0,1,211.1,91.83Zm0,0a27.86,27.86,0,0,0-31.93-30.47A27.66,27.66,0,0,0,167.55,66a28.87,28.87,0,0,0-8.42,9.18,27.83,27.83,0,0,0-3.58,11.91,28.28,28.28,0,0,0,2,12.27l.11.25-.14.23L150.41,112l-.5-.74,14.1-2,.19,0,.14.13a27.85,27.85,0,0,0,13.48,6.94,24.45,24.45,0,0,0,3.82.46,27.48,27.48,0,0,0,3.85,0,28.13,28.13,0,0,0,7.52-1.66,25.92,25.92,0,0,0,6.79-3.66,30.48,30.48,0,0,0,3-2.48,29.44,29.44,0,0,0,2.56-2.91A28.34,28.34,0,0,0,211.1,91.83Z" style="fill:#263238"></path><path d="M199,105.68h.16l.16,0,.1,0h0l.06,0h0l.06,0,0,0a.4.4,0,0,0,.09-.17c0,.06,0,.07,0,0s0,0,0,0l0-.11h0a13,13,0,0,1-.26-5.27,15.36,15.36,0,0,1,3.92-1.17h0s0,0,0,0l0-.11a.43.43,0,0,0,0-.11h0a1.08,1.08,0,0,0,0-.18v-.09h0a1.16,1.16,0,0,1,0-.18l0-.11A14.85,14.85,0,0,0,199.56,99s0-.08,0-.12c.39-3.84.8-7.8-2.9-9.86a7.38,7.38,0,0,0-5.55-.58,21.53,21.53,0,0,0-4,1.47c0-3.85-.15-7.8-4.37-10.25-2.83-1.65-7.09-.74-12.66,2.7-.37.22-.73.45-1.08.68l-.18-.89c-.79-4-1.48-7.47-3.84-8.23a.42.42,0,1,0-.26.8c1.9.61,2.57,4,3.28,7.59.08.41.16.82.25,1.24a58.84,58.84,0,0,0-5.61,4.38.44.44,0,0,0,0,.6.41.41,0,0,0,.59,0,58.87,58.87,0,0,1,5.24-4.11c.92,4.28,2.28,8.5,6.17,9.53h0c3.83,1,7.54-.78,11.13-2.51l.52-.25c.06,3.35.41,6.68,3.7,8.91,3,2,5.9,1.15,8.55.14A12.59,12.59,0,0,0,199,105.68Zm-27.38-15a19.54,19.54,0,0,1-2.4-6.8c2.72-1.82,6-3.59,8.84-4.09Zm3,2.35a5.23,5.23,0,0,1-2.41-1.64l6.94-11.73a5.67,5.67,0,0,1,3.24.67l.48.3Zm4.3.16a9.21,9.21,0,0,1-3.43.06l8.06-12.11a6.71,6.71,0,0,1,1.71,2.1.4.4,0,0,0-.18.16L179,93A.33.33,0,0,0,178.9,93.19Zm6.55-2.52A33.89,33.89,0,0,1,180,92.92l5.61-8.83a17.67,17.67,0,0,1,.72,6v.15Zm1.72.11c2.24-1,4.4-1.91,6.43-1.82L188,96.37A14.85,14.85,0,0,1,187.17,90.78Zm1.25,6.42,0,0,6.08-8,0,0a5.89,5.89,0,0,1,1.69.63,5.36,5.36,0,0,1,.66.43l-6.79,9A6.64,6.64,0,0,1,188.42,97.2Zm4.41,3.16a6,6,0,0,1-2-.78l6.73-8.89a5.05,5.05,0,0,1,1.17,2.2L192.91,100A.43.43,0,0,0,192.83,100.36Zm.77.09L198.91,94a23.62,23.62,0,0,1-.17,4.77l-.06.55A12.53,12.53,0,0,1,193.6,100.45Z" style="fill:#455a64"></path><path d="M199,94.59a3.35,3.35,0,1,1,3.35-3.35A3.35,3.35,0,0,1,199,94.59Zm0-5.7a2.35,2.35,0,1,0,2.35,2.35A2.35,2.35,0,0,0,199,88.89Z" style="fill:#590E85"></path><rect x="198.48" y="78.36" width="1" height="10.03" style="fill:#590E85"></rect><path d="M176.51,97.32A3.35,3.35,0,1,1,179.86,94,3.35,3.35,0,0,1,176.51,97.32Zm0-5.7A2.35,2.35,0,1,0,178.86,94,2.35,2.35,0,0,0,176.51,91.62Z" style="fill:#590E85"></path><polygon points="172.15 100.4 169.73 100.4 169.73 99.4 171.74 99.4 175.12 96.02 175.82 96.73 172.15 100.4" style="fill:#590E85"></polygon><path d="M194.52,73.48a46.44,46.44,0,0,1,9.72,0,45.77,45.77,0,0,1-9.72,0Z" style="fill:#263238"></path><path d="M194.52,75.12a46.44,46.44,0,0,1,9.72,0,46.44,46.44,0,0,1-9.72,0Z" style="fill:#263238"></path><path d="M194.52,76.76a18.46,18.46,0,0,1,6.16,0,18.73,18.73,0,0,1-6.16,0Z" style="fill:#263238"></path><path d="M161.39,98.14a26.3,26.3,0,0,1,7.36,0,26.68,26.68,0,0,1-7.36,0Z" style="fill:#263238"></path><path d="M161.39,99.77a18.67,18.67,0,0,1,6.15,0,18.4,18.4,0,0,1-6.15,0Z" style="fill:#263238"></path></g><g id="freepik--character-3--inject-201"><path d="M330.37,467.06c2.53.82,74.6-.11,77.32-1.89,1.05-.66,1.52-11.17,1.73-23.89v-.4c.05-2.62.09-5.31.09-8.05,0-.38,0-.75,0-1.13L406,394.31l-48.21.49,4.75,37,.06,1.47.29,7.67,0,.79s-27.43,12.69-30.22,15S327.84,466.26,330.37,467.06Z" style="fill:#ad6359"></path><path d="M330.37,467.06c2.53.82,74.6-.11,77.32-1.89,1.05-.66,1.52-11.17,1.73-23.89v-.4c.05-2.62.09-5.31.09-8.05,0-.38,0-.75,0-1.13l-47,.13.06,1.47.29,7.67,0,.79s-27.43,12.69-30.22,15S327.84,466.26,330.37,467.06Z" style="fill:#ebebeb"></path><path d="M330.36,467.06c1.3.42,20.89.37,40,0,3.84-.08,7.67-.17,11.32-.27,13.65-.37,24.93-.93,26-1.62s1.51-10.87,1.72-23.35c0-.17,0-.35,0-.53s0-.27,0-.41h-.06l-46.45.09,0,.8s-27.43,12.69-30.21,15S327.84,466.26,330.36,467.06Z" style="fill:#a6a6a6"></path><path d="M331.15,464.26c12.14-.46,61.17-1.15,73.21-.68.1,0,.1.07,0,.08-12,.72-61.07,1-73.22.8C330.89,464.45,330.89,464.27,331.15,464.26Z" style="fill:#263238"></path><path d="M357.75,441.17c4.77-1,10.62-.3,14.32,3.06.14.13,0,.33-.2.29a66.88,66.88,0,0,0-14.1-2.75A.3.3,0,0,1,357.75,441.17Z" style="fill:#263238"></path><path d="M354.32,443.29c4.77-1,10.63-.29,14.33,3.06.14.13,0,.34-.2.29a67,67,0,0,0-14.1-2.74A.31.31,0,0,1,354.32,443.29Z" style="fill:#263238"></path><path d="M350.9,445.42c4.77-1,10.62-.3,14.32,3.06.14.13,0,.33-.2.28a67.38,67.38,0,0,0-14.1-2.74A.3.3,0,0,1,350.9,445.42Z" style="fill:#263238"></path><path d="M370.39,467.05c3.84-.08,7.67-.17,11.32-.27,13.65-.37,24.93-.93,26-1.62s1.51-10.87,1.72-23.35c0-.17,0-.35,0-.53s0-.27,0-.41h-.06C403,445.34,380.58,460.27,370.39,467.05Z" style="fill:#263238"></path><path d="M359.76,441.13h51.9s-10.45-121.24-10-123.35c.52-2.72,3.58-15,7.66-31,1.28-5,2.66-10.4,4.09-16,3.87-15.09,8.14-31.57,11.86-45.91,5.57-21.49,9.93-38.18,9.93-38.18h-44S386,203,379.58,224.09c-10.53,34.37-24.6,81.67-26,93.17C351.34,335.82,359.76,441.13,359.76,441.13Z" style="fill:#263238"></path><path d="M362.06,432.27c7.92-.16,5.65-.23,13.57-.3,3.88,0,29.38-.26,33,.34.08,0,.08.14,0,.16-3.63.6-29.13.38-33,.34-7.92-.08-5.65-.14-13.57-.31A.12.12,0,0,1,362.06,432.27Z" style="fill:#37474f"></path><path d="M391.85,310.37c1.71-7.51,4.25-14.86,6.46-22.23q6.75-22.44,13.58-44.87,3.41-11.21,6.85-22.42,1.74-5.65,3.5-11.3c1.15-3.69,2.47-7.34,3.51-11.06.42-1.51.66-.68.11,1.24-1.09,3.87-2.17,7.75-3.3,11.61q-3.36,11.47-6.75,22.93-6.75,22.81-13.62,45.59-3.42,11.43-6.87,22.84a95.63,95.63,0,0,0-2.81,11.05,50.9,50.9,0,0,0-.45,11.83c.49,7.94,1.41,15.87,2.15,23.79s1.47,15.88,2.2,23.82q2.19,23.7,4.35,47.41c.18,2,.36,4,.51,6,.05.67-.42.75-.49.1-1.71-15.62-3.56-31.43-5-47.08l-4.38-46.71c-.36-3.91-.78-7.83-.78-11.76A49,49,0,0,1,391.85,310.37Z" style="fill:#37474f"></path><path d="M396.16,186.7c3.06,23.62,8.88,67.92,13.12,100.06,9.93-38.94,25.88-100.06,25.88-100.06Z" style="fill:#37474f"></path><path d="M385.36,467.76c2.52.82,74.6.15,77.32-1.62,1.05-.65,1.57-11.16,1.82-23.87,0-.14,0-.27,0-.4.06-2.62.1-5.32.11-8.06,0-.37,0-.75,0-1.12.17-18.35-1.15-37.39-1.15-37.39l-47.12.3,1.32,37,.05,1.46.26,7.67,0,.79s-27.48,12.6-30.27,14.86S382.83,467,385.36,467.76Z" style="fill:#ad6359"></path><path d="M385.36,467.76c2.52.82,74.6.15,77.32-1.62,1.05-.65,1.57-11.16,1.82-23.87,0-.14,0-.27,0-.4.06-2.62.1-5.32.11-8.06,0-.37,0-.75,0-1.12l-46.95,0,.05,1.46.26,7.67,0,.79s-27.48,12.6-30.27,14.86S382.83,467,385.36,467.76Z" style="fill:#ebebeb"></path><path d="M385.36,467.76c2.52.82,74.6.15,77.32-1.62,1.05-.65,1.57-11.16,1.82-23.87,0-.14,0-.27,0-.4L418,441.78l0,.79s-27.48,12.6-30.27,14.86S382.83,467,385.36,467.76Z" style="fill:#a6a6a6"></path><path d="M386.15,465c12.14-.41,61.18-.93,73.21-.41.1,0,.1.07,0,.07-12,.68-61.07.79-73.22.54C385.89,465.15,385.89,465,386.15,465Z" style="fill:#263238"></path><path d="M412.83,442c4.77-.93,10.63-.26,14.31,3.12.14.13,0,.33-.2.28a66.74,66.74,0,0,0-14.09-2.79A.31.31,0,0,1,412.83,442Z" style="fill:#263238"></path><path d="M409.4,444.07c4.77-.93,10.62-.25,14.31,3.12.14.13,0,.33-.2.28a67.5,67.5,0,0,0-14.09-2.79A.31.31,0,0,1,409.4,444.07Z" style="fill:#263238"></path><path d="M406,446.19c4.78-.94,10.63-.26,14.32,3.11.14.13,0,.33-.2.29a66.88,66.88,0,0,0-14.09-2.8A.3.3,0,0,1,406,446.19Z" style="fill:#263238"></path><path d="M392.59,186.7s1,21,5.83,37.71c.39,1.38.81,2.74,1.26,4A78.39,78.39,0,0,1,412.36,235s.51,16.94,1,35.83c.57,21.11,1.15,44.66,1,49.65-.44,18.69,2.34,121.45,2.34,121.45l51.89.21s-9.38-114.75-9.31-121.6c.1-11-2.52-59.64-4.54-95.11a280.2,280.2,0,0,0-4.84-38.69Z" style="fill:#263238"></path><path d="M418.51,432.66c7.93-.13,5.66-.21,13.58-.25,3.88,0,29.38-.14,33,.48a.08.08,0,0,1,0,.16c-3.62.59-29.12.26-33,.2-7.93-.11-5.65-.16-13.58-.36A.12.12,0,0,1,418.51,432.66Z" style="fill:#37474f"></path><path d="M448.17,194.22c1,28.95,2,57.91,3.27,86.85s8.11,133,9.86,149.13c0,.11-.15.15-.17,0-3.78-28.72-5.88-71.23-7.74-100.14s-3.12-57.84-4.1-86.78c-.56-16.37-1-32.75-1.48-49.12C447.81,194,448.17,194,448.17,194.22Z" style="fill:#37474f"></path><path d="M397.52,227.19A96.6,96.6,0,0,1,412.36,235a.17.17,0,0,1-.16.3c-5-2.43-10.12-4.77-15-7.48A.34.34,0,0,1,397.52,227.19Z" style="fill:#37474f"></path><path d="M397.23,209.34c.34,1.84.79,3.67,1.19,5.5s.65,3.48,1.1,5.18a8.87,8.87,0,0,0,2.41,4.34c.68.62,1.42,1.18,2.14,1.75.39.31.81.61,1.21.92,0-.24-.09-.49-.14-.74l-.36-2.1c-.26-1.55-.5-3.11-.74-4.67-.47-3.06-.9-6.15-1.54-9.18a.1.1,0,0,1,.19-.05c.76,3,1.61,6,2.27,9,.32,1.49,1.49,8.82,1.54,9.34s.1,1.07.12,1.61a7,7,0,0,1,0,1.65c0,.13-.2.11-.25,0h0a6.7,6.7,0,0,1-.47-1.6c-.13-.52-.25-1-.34-1.58,0-.2-.06-.39-.09-.59-.72-.44-1.4-1-2.07-1.51s-1.47-1-2.16-1.62a8.24,8.24,0,0,1-2.63-4.11,30.34,30.34,0,0,1-.87-5.27c-.23-2.08-.4-4.18-.69-6.25C397,209.26,397.21,209.21,397.23,209.34Z" style="fill:#37474f"></path><path d="M406.39,135.8C403,146.13,387.6,179,381.15,181.27c-6.72,2.38-32.67,5.35-38.43.82-2.82-2.23-3.8-26,0-25.4s26.68,1.43,29.4.46S393,129.7,400.41,123.29C413.14,112.24,408.24,130.23,406.39,135.8Z" style="fill:#ad6359"></path><path d="M348.48,156.29l.37,29.59s26.61.07,33.7-3.66,22.09-37.92,25.84-51-2.25-15.1-11.78-5.5-23.86,29.72-25.56,30.13S348.48,156.29,348.48,156.29Z" style="fill:#ebebeb"></path><path d="M356.23,170.9c0-2.35-.17-11.72-.39-14,0,0-.06-.05-.06,0-.23,2.26-.35,11.51-.34,13.86a128.92,128.92,0,0,0,.53,14,.08.08,0,0,0,.15,0C356.47,180.15,356.28,175.52,356.23,170.9Z" style="fill:#263238"></path><path d="M408.39,131.21c-3.75,13.09-18.75,47.27-25.84,51-3.4,1.79-11.28,2.71-18.57,3.17l41.78-65.63C409.33,119.35,410.68,123.22,408.39,131.21Z" style="opacity:0.1"></path><path d="M384.42,206.15l69.77,0s-11.84-60.72-35.31-83c-2.9-2.76-10.57-5-16.76,1.68C393.8,133.77,384.26,205.92,384.42,206.15Z" style="fill:#590E85"></path><path d="M415.47,120.13s-2,22.37-1.65,40.78c.87,49.85,4.78,142.11,7.24,145.06,1.45,1.74,47.73-6.33,47.73-6.33S458.94,198,442.36,158.83C427,122.53,415.47,120.13,415.47,120.13Z" style="fill:#ebebeb"></path><path d="M454.84,231.11a125.56,125.56,0,0,1-14.58,2c-6.85.4-13.69.13-15.65.22-.18,0-.24.59-.12.6,2.58.18,10.49.5,15.71.2a82.51,82.51,0,0,0,14.18-2.19c.06,1.46.12,2.59.21,4-4.78,1.21-14,3.38-29.17,2.32-.08-.61-.19-3.84-.37-4.72,0-.13-.59-.13-.6.08-.07.88,0,8.67.11,10.24.2,3.9,1.1,14.86,2.19,16.93,2.48,4.7,11.86,4.16,14.46,4s11-.36,13.94-3.61c1.58-1.73,1.42-10.66.71-18.51C455.52,239,455.07,231.17,454.84,231.11ZM441.9,263.83c-8.3.49-12-1-13.39-2.69-1.61-1.93-1.94-5.44-2.28-9.32-.26-3-.72-12.59-.74-12.78,4.89.69,17.73,1.27,29.16-2.1.28,4.53.5,8.14.77,12.67.19,3.28.31,8.79-1.24,10.79C452.88,262.08,447.89,263.47,441.9,263.83Z" style="fill:#dbdbdb"></path><path d="M401,124.84s-6.12,37.09-7,43.08-2.82,129.67-4.7,134.2c-.64,1.53-26.84-6.05-26.84-6.05s30.59-150.54,32.65-158C398.72,125.27,401,124.84,401,124.84Z" style="fill:#ebebeb"></path><polygon points="408.76 137.18 405.16 133.37 402.09 137.74 403.63 141.13 407.38 140.97 408.76 137.18" style="fill:#263238"></polygon><polygon points="407.38 140.97 413.82 186.97 407.25 200.95 399.58 188.15 403.63 141.13 407.38 140.97" style="fill:#263238"></polygon><path d="M396.6,137.51s2-5.55-1.85-6.64-5,4.71-5,4.71Z" style="fill:#455a64"></path><path d="M378.57,175.38h0l1.2,5.65.39,1.87,1.32-1.38,4-4.22h0l11.21-40-6.87-1.92-11.21,40Z" style="fill:#455a64"></path><polygon points="379.77 181.05 380.16 182.92 381.48 181.53 379.77 181.05" style="fill:#37474f"></polygon><rect x="388.9" y="136.07" width="8.33" height="1.65" transform="translate(734.59 374.82) rotate(-164.34)" style="fill:#37474f"></rect><rect x="388.41" y="137.83" width="8.33" height="1.65" transform="translate(733.15 378.14) rotate(-164.34)" style="fill:#37474f"></rect><polygon points="396.36 140.58 393.77 139.85 391.14 154.73 392.11 154.94 396.36 140.58" style="fill:#37474f"></polygon><path d="M427.17,127.94c17.76,18.54,38.08,50.06,30,57.14-7.42,6.47-28.25,2.44-45.86-3.88-3.35-1.2.92-30.25,4.35-28.6a74.41,74.41,0,0,0,13.86,4.65c1,.24-5.85-7.83-12.11-23C411,118.75,417,117.35,427.17,127.94Z" style="fill:#ad6359"></path><path d="M375.08,153.46c.26,3.31,8.37,2,8.37,2a6.08,6.08,0,0,0-2.21,3.53c-.42,2.49,3.3,4.24,3.3,4.24a7.53,7.53,0,0,0-1.74,4.1c-.16,2.42,3.34,4.72,3.34,4.72a6.61,6.61,0,0,0,.74,4.57c2.24,3.62,8.78,3.17,12.88,3.69,4.39.56,11.12.77,13.81,1.7l4.62-28.28s-18.11-9.62-23-9C391.11,145.27,374.7,148.39,375.08,153.46Z" style="fill:#ad6359"></path><path d="M383.52,155.36a55.23,55.23,0,0,1,13.27-2.73.08.08,0,0,1,0,.15c-4.43.47-8.84,2.14-13.24,2.79A.11.11,0,0,1,383.52,155.36Z" style="fill:#263238"></path><path d="M384.63,162.88a11.69,11.69,0,0,1,3.06-.41c1.09-.08,2.18-.13,3.27-.17q3.29-.12,6.56-.06c.1,0,.12.15,0,.15-2.18.08-4.36.19-6.53.36l-3.26.28a13.84,13.84,0,0,1-3.08.15A.16.16,0,0,1,384.63,162.88Z" style="fill:#263238"></path><path d="M386.23,172.05a8,8,0,0,1,2.77-.23l3-.06c2,0,4-.1,6-.22.1,0,.11.15,0,.15-2,.13-4,.29-6.06.41l-3,.15a7.7,7.7,0,0,1-2.71-.1A.05.05,0,0,1,386.23,172.05Z" style="fill:#263238"></path><path d="M419.76,151.38l-5.71,33.14s41.55,9.61,45.54-1-21.37-48.63-35.66-59.29-8.56,6.61-8.09,8c2.06,6.13,11.31,22,11.31,22Z" style="fill:#ebebeb"></path><path d="M420.47,151.39c4.78,1.54,17.38,7.38,20.17,9.84.08.08,0,.21-.09.15-2.74-1.82-18.29-8.9-20.72-9.75a3.16,3.16,0,0,1-.15.38c-.08.12-.14.05-.14-.06a6.31,6.31,0,0,1,.15-.8Z" style="fill:#263238"></path><path d="M424.52,169.73c.38-2.31,1.84-11.57,2-13.9,0,0-.06-.05-.07,0-.61,2.19-2.32,11.28-2.71,13.6a128.24,128.24,0,0,0-1.9,13.92c0,.08.12.13.15,0C423.15,178.88,423.76,174.29,424.52,169.73Z" style="fill:#263238"></path><path d="M427.48,154.48c-1.37-2.77-3-5.4-4.52-8.1s-3-5.37-4.44-8.11c0,0-.08,0-.06,0,.86,1.88,1.71,3.74,2.62,5.58-.27-.29-.52-.59-.77-.89-.45-.55-.87-1.13-1.28-1.71a0,0,0,0,0-.06,0,9.23,9.23,0,0,0,1.2,1.84,11.34,11.34,0,0,0,1.13,1.17c.38.75.76,1.5,1.16,2.24A60.24,60.24,0,0,0,427,154.5C427.07,154.58,427.53,154.57,427.48,154.48Z" style="fill:#263238"></path><path d="M453.46,187.62c-11.07,1.48-34.68-2.26-39.25-3.06,0-.48,0-.65.08-1.34,0-.09-.13-.13-.15,0-.11.65-.5,1.95-.32,2,2.21.8,28.09,5.14,39.65,2.63C453.59,187.8,453.59,187.61,453.46,187.62Z" style="fill:#263238"></path><rect x="350.17" y="139.67" width="38.93" height="50.68" transform="matrix(0.98, -0.2, 0.2, 0.98, -25.58, 77.45)" style="fill:#590E85"></rect><rect x="350.17" y="139.67" width="38.93" height="50.68" transform="matrix(0.98, -0.2, 0.2, 0.98, -25.58, 77.45)" style="opacity:0.6000000000000001"></rect><rect x="348.54" y="140.01" width="38.93" height="50.68" transform="matrix(0.98, -0.2, 0.2, 0.98, -25.68, 77.13)" style="fill:#590E85"></rect><rect x="348.54" y="140.01" width="38.93" height="50.68" transform="matrix(0.98, -0.2, 0.2, 0.98, -25.68, 77.13)" style="opacity:0.4"></rect><rect x="353.9" y="137.88" width="18.45" height="5.59" transform="translate(-20.76 75.21) rotate(-11.5)" style="fill:#c7c7c7"></rect><polygon points="367.5 136.94 365.27 137.39 364.76 134.87 359.35 135.97 359.86 138.49 357.64 138.95 356.7 134.34 366.6 132.33 367.5 136.94" style="fill:#c7c7c7"></polygon><path d="M342.75,152.78c-1.33,3.74-5.14,8.6-5.19,11.54a3.38,3.38,0,0,0,2.23,3.37s-2.76,1.74-2.37,4.43c.2,1.38,2.59,2.27,2.59,2.27a4,4,0,0,0-1.66,3.86c.4,1.88,2.73,2.49,2.73,2.49s-1.4,2.4-.38,4.19c2.07,3.63,18.51,1.95,20.43-4.36.9-2.94-3.1-2.32-3.1-2.32s5.53-2.28,5.27-5.68-5.4-2.27-5.4-2.27,5.34-2.27,4.71-5.76-5.59-1.63-5.59-1.63,3.4-2.85,2.31-5.42c-1.8-4.24-8.16,2-11.86,1.48l-2.6-5.76Z" style="fill:#ad6359"></path><path d="M340,158.29c.95-3.65-3.84-7.54-3.44-11.16.56-4.9,6.43-.75,8.33,6.08l.55,5.57Z" style="fill:#ad6359"></path><path d="M341.43,180.89a0,0,0,0,0,0,.09,28.77,28.77,0,0,0,16.84-2.73c.16-.09.09-.39-.11-.33A59.07,59.07,0,0,1,341.43,180.89Z" style="fill:#263238"></path><path d="M339.93,174.43c-.06,0-.06.11,0,.12a26.84,26.84,0,0,0,18.17-4.12c.19-.13.22-.43,0-.3C354.35,172.34,345.27,174.34,339.93,174.43Z" style="fill:#263238"></path><path d="M357.33,162.51c-5.29,3.37-11.12,4.71-17.31,5.22-.08,0-.06.12,0,.13,3.09.58,7-.16,10-1a16.58,16.58,0,0,0,7.41-4.17C357.53,162.62,357.44,162.44,357.33,162.51Z" style="fill:#263238"></path><path d="M404.48,133.42c3.9,0,8.81-7.26,10.16-12.44.09-.35-1.21-3.53-2.61-7.46-.84-2.39-1.72-5.07-2.35-7.57-.13-.52-14.75,7.74-14.75,7.74a41.38,41.38,0,0,1,3.93,9.24,6.64,6.64,0,0,1,.15,1,.62.62,0,0,0,0,.18C399.2,126.19,400.71,133.47,404.48,133.42Z" style="fill:#ad6359"></path><path d="M410.76,109.73c-3.54,9.85-10.19,13.06-11.9,13.2a39.14,39.14,0,0,0-3.93-9.24s14.63-8.26,14.75-7.74C410,107.18,410.36,108.47,410.76,109.73Z" style="fill:#263238"></path><path d="M410.34,88.12c2.46,5.48,1.53,22.31-2.06,26.48-5.2,6.06-14.74,7.79-20.15,1.3-5.25-6.29-3.65-28.2.45-32.1C394.63,78.05,406.71,80,410.34,88.12Z" style="fill:#ad6359"></path><path d="M395.54,102.58s.09.06.08.1c-.07,1.14,0,2.45,1,2.86,0,0,0,.07,0,.06C395.4,105.38,395.28,103.64,395.54,102.58Z" style="fill:#263238"></path><path d="M396.6,101.43c1.83-.07,1.83,3.6.14,3.66S395.06,101.49,396.6,101.43Z" style="fill:#263238"></path><path d="M389.15,102.36s-.09.06-.09.1c0,1.14-.11,2.44-1.14,2.82,0,0,0,.07,0,.07C389.19,105.17,389.36,103.43,389.15,102.36Z" style="fill:#263238"></path><path d="M388.13,101.18c-1.83-.14-2,3.53-.27,3.65S389.66,101.29,388.13,101.18Z" style="fill:#263238"></path><path d="M398.66,99.23a15,15,0,0,1-1.5-.17,2.4,2.4,0,0,1-1.49-.47.77.77,0,0,1-.08-.94,1.9,1.9,0,0,1,1.84-.62,2.83,2.83,0,0,1,1.86.83A.82.82,0,0,1,398.66,99.23Z" style="fill:#263238"></path><path d="M386.39,99.56a12.45,12.45,0,0,0,1.5.09,2.43,2.43,0,0,0,1.55-.2.79.79,0,0,0,.25-.91A2,2,0,0,0,388,97.6a2.86,2.86,0,0,0-2,.5A.82.82,0,0,0,386.39,99.56Z" style="fill:#263238"></path><path d="M397,112c-.28.27-.55.63-1,.66a3,3,0,0,1-1.21-.3s-.08,0,0,.06a1.51,1.51,0,0,0,1.43.63,1.21,1.21,0,0,0,.91-1A.07.07,0,0,0,397,112Z" style="fill:#263238"></path><path d="M395.79,108.55a3.81,3.81,0,0,1-2.6,1.69,4.61,4.61,0,0,1-1.39.05,1.09,1.09,0,0,1-.26,0l-.25,0a.29.29,0,0,1-.23-.26h0a.43.43,0,0,1,0-.11h0v-.1c0-.88.08-2.21.08-2.21-.32.16-2,.88-1.92.42a57.86,57.86,0,0,1,1.63-11.68.1.1,0,0,1,.2,0c-.11,3.64-.86,7.24-1,10.89a6.72,6.72,0,0,1,1.84-.53c.12,0-.24,2.56-.21,2.95a.18.18,0,0,0,0,.05,5.39,5.39,0,0,0,4-1.2C395.77,108.38,395.86,108.46,395.79,108.55Z" style="fill:#263238"></path><path d="M412,103.93c-2.44.88-4.63-2-5.39-3.46s-.76-8.94-2.14-11.19-4.07-3.35-6.08-2.6-4.47,3.65-6,3.62-2.13-3.28-3.18-3.21c-2.33.17-3.8,4.73-4,7.31,0,0-1.2-12.17,9.86-14,10.78-1.76,15.33,5,16.51,8.21C413.85,94.77,412,103.93,412,103.93Z" style="fill:#263238"></path><path d="M407.54,103.89s3.16-5.72,5.72-4.65.58,9.1-2.15,10.46a2.9,2.9,0,0,1-4-1.15Z" style="fill:#ad6359"></path><path d="M412.64,101.52a0,0,0,0,1,0,.08c-1.91,1-2.76,3-3.29,5a1.61,1.61,0,0,1,2.34-.69c.06,0,0,.12,0,.11a1.78,1.78,0,0,0-1.89.83,8.52,8.52,0,0,0-.77,1.68c-.07.19-.41.13-.36-.09v0C408.34,105.83,409.94,102.07,412.64,101.52Z" style="fill:#263238"></path><path d="M398.68,123.66l6.37,7.63,8.42-14.54,3.74,3.44s-6.17,20-6.44,19.22l-5.62-6.34-3.9,6.51-3-12.89Z" style="fill:#590E85"></path><path d="M399.39,133.3c-.43-2.15-.92-4.3-1.24-6.46,0-.08.1-.15.15-.06,1,1.91,2.56,10.13,3.09,12.06l0,0c.16-.28,3.67-5.79,3.74-5.74,1.1,1,5.21,5.56,5.53,6,1-3.17,5.31-15.8,6.64-18.91a.08.08,0,0,1,.15,0c-.73,3.27-6.27,19.89-6.41,19.89a84.81,84.81,0,0,1-5.9-6.71c-.54,1.14-4,7.22-4.05,6.91A64.62,64.62,0,0,1,399.39,133.3Z" style="fill:#263238"></path></g><g id="freepik--character-2--inject-201"><polygon points="277.58 342.03 280.28 358.19 298.53 468.11 301.47 468.11 288.2 358.19 286.24 342.03 277.58 342.03" style="fill:#dbdbdb"></polygon><polygon points="286.24 342.03 277.58 342.03 280.28 358.19 288.2 358.19 286.24 342.03" style="fill:#a6a6a6"></polygon><polygon points="220.27 468.11 223.21 468.11 241.46 358.19 244.16 342.03 235.5 342.03 233.54 358.19 220.27 468.11" style="fill:#dbdbdb"></polygon><polygon points="235.5 342.03 233.54 358.19 241.46 358.19 244.16 342.03 235.5 342.03" style="fill:#a6a6a6"></polygon><polygon points="165.52 468.11 168.46 468.11 186.71 358.19 189.41 342.03 180.75 342.03 178.79 358.19 165.52 468.11" style="fill:#dbdbdb"></polygon><polygon points="178.79 358.19 186.71 358.19 189.41 342.03 180.75 342.03 178.79 358.19" style="fill:#a6a6a6"></polygon><polygon points="170.18 349.62 303.93 349.62 303.93 335.53 253.86 335.53 237.04 237.63 175.28 237.63 170.18 349.62" style="fill:#dbdbdb"></polygon><polygon points="170.18 349.62 177.47 349.62 182.23 237.63 175.28 237.63 170.18 349.62" style="fill:#a6a6a6"></polygon><path d="M379.73,435.35c-2.33,1.36-73.83,16.31-76.92,15.15-1.17-.43-3.95-10.71-7-23.24-.66-2.7-1.31-5.5-2-8.34-4.24-18.47-8.31-38.15-8.31-38.15l47.81-10.14,7,38.43,1.54,8.43s29.93,6.52,33.18,8.15S382.05,434,379.73,435.35Z" style="fill:#eb9481"></path><path d="M297,432c2.54,10.27,4.78,18.08,5.8,18.47,3.09,1.15,74.6-13.81,76.92-15.16s-1.39-8.07-4.62-9.71c-2-1-14.17-3.87-23.2-5.92,7.88,1.88,22.59,7.23-7.83,9.43C318.94,431,302.34,431.8,297,432Z" style="fill:#263238"></path><path d="M318,467.62c-2.56.85-75.6.66-78.38-1.11-1.06-.66-.13-16.73.5-19.58,2.11-9.66,15.53-52.29,15.53-52.29l47.24.86-18.18,46.81s27.93,12.58,30.78,14.85S320.55,466.77,318,467.62Z" style="fill:#eb9481"></path><path d="M239.62,466.51c2.78,1.77,75.82,2,78.38,1.11s.32-8.2-2.51-10.46c-1.33-1.06-8.09-4.34-14.94-7.55,8.61,4.3,22.38,14.17-61-.53C239.18,457.46,239.05,466.16,239.62,466.51Z" style="fill:#263238"></path><path d="M202,327.64c14.54,16.2,63.39,3.41,66.31,9.85,2.58,5.69-30.76,97-30.76,97l53.35,5.76s46.05-100.82,29.59-130c-8.89-15.74-48.07-9.46-71.72-12.34-7.13-.87-10.48-15.58-10.48-15.58H196.06S185.4,309.13,202,327.64Z" style="fill:#263238"></path><path d="M305.68,301.24l-44.8,34.28c-14.88-.31-47.44,4.84-58.85-7.88-16.63-18.52-6-45.28-6-45.28h42.25s3.35,14.7,10.48,15.57C265.39,299.94,289.62,297.46,305.68,301.24Z" style="fill:#37474f"></path><path d="M293,428.31c-1.48-.46-15.31-2-18.36-2.33-6.11-.66-25.33-2.46-28.82-2.45-.09,0-.1.15,0,.17,3,.63,15.29,2.06,18.34,2.38,6.12.62,27.12,2.66,28.82,2.49A.13.13,0,0,0,293,428.31Z" style="fill:#37474f"></path><path d="M274.81,332.14c-3.44-1.7-29.44-.86-48.09-2.6-6.08-.57-12.18-1.87-16.82-5.85A27.8,27.8,0,0,1,201.6,310c-1.8-6.37-1.61-13-1.3-19.55.07-1.61.18-3.22.28-4.82,0-.09-.16-.11-.17,0-1.42,11.7-2.5,24.76,5.1,34.9a24.48,24.48,0,0,0,13.6,8.92c11.26,3,53.56,2.23,55.05,3.37,1.78,1.36-25.57,84.62-26.11,86.21-.1.3.42.5.55.2C251.29,412.83,277.79,333.63,274.81,332.14Z" style="fill:#37474f"></path><path d="M322.42,313.08c-2.52-6.38-8.25-10.35-16.69-11.88-.14,0-.13.19,0,.23,7.37,2.15,12.63,5.11,15.53,11.33,1.35,2.9,2.05,7,2.4,12.44,1.75,27.26-22,89.15-22.52,90.23a.08.08,0,0,0,.14.08C304.63,409.86,332.8,339.44,322.42,313.08Z" style="fill:#37474f"></path><path d="M341.71,406.61l-40.4,8.59s31.87-95.11,16.9-107.38c-4.15-3.4-13.19-4.59-23.94.05-16,6.93-34.63,21.07-52.14,26.24-16.4,4.84-35.87.39-42.58-7-14.07-15.5-3.48-44.78-3.48-44.78l58.09-2.18s-.87.7,1.9,3.16c0,0,34.15-7.74,49,1.33C331.81,301,341.71,406.61,341.71,406.61Z" style="fill:#263238"></path><path d="M221.16,285.74a.1.1,0,0,0-.2,0,33,33,0,0,1-.5,6.51,11.3,11.3,0,0,1-2.93,5.42c-3.18,3.22-7.75,4.31-11.92,5.63-.23.07-.18.46.06.42,4.63-.71,9.51-1.89,12.89-5.36a11.25,11.25,0,0,0,3-5.83A13.83,13.83,0,0,0,221.16,285.74Z" style="fill:#37474f"></path><path d="M317.21,306c-6.21-3.9-15.92-.93-20.57.85-.09,0-.05.19.05.15,4.28-1.53,14.92-3.86,20.6.17,13.15,9.31-4.44,73-16,108-.18.55.26.4.5-.12,1.9-4.16,16.77-48.44,20.65-77.74C323.05,332.84,326.17,311.62,317.21,306Z" style="fill:#37474f"></path><path d="M337.1,395.87c-1.22,0-11.69,2.28-14,2.8-4.62,1-15.31,3.8-17.8,4.76-.07,0,0,.16,0,.15,2.4-.23,8-1.45,10.27-2,4.61-1.07,20.4-4.86,21.56-5.48C337.28,396.07,337.22,395.87,337.1,395.87Z" style="fill:#37474f"></path><path d="M315.23,304.35c-4.18-2.29-9.15-2.66-13.79-2.09a48.73,48.73,0,0,0-14.09,4.41c-9.45,4.32-18.45,9.6-27.91,13.9s-19.45,7.62-29.82,7.94c-8.86.27-20.08-1.29-25.78-9.27-8.78-12.28-3.66-33.45-3.56-34.82,0-.11-.14-.1-.16,0-6.81,26,1.95,36.14,7.86,40.39,4.7,3.37,11.45,4.23,15.91,4.6,10.31.87,20.65-1.65,30.21-5.46,9.8-3.9,19-9.15,28.37-14,9-4.6,19-9.35,29.31-6.71a26,26,0,0,1,3.42,1.17C315.25,304.47,315.29,304.38,315.23,304.35Z" style="fill:#37474f"></path><path d="M261.62,186.05c-8.57,6.42-5.26,14.52-8.79,16.41-9.23,4.93-4.63,8.67-7.23,10.66-2.14,1.63-9,1.66-8.52,9.56l29.68,7.3c2.09-4.65-2.17-8.48-1.63-12s5.49-5.95.77-14.91C262.83,197.25,265.74,183,261.62,186.05Z" style="fill:#263238"></path><path d="M236.9,224c6.92,19.16,19.16,41.65,23.63,45,5.65,4.23,37.42,8.17,39.12,8.14,4.18-.08,7.12-28.58,4.68-28.31-6.78.75-28.88-.27-30.53-1.59s-13.56-13.1-25.92-26.47C239.35,211.54,232.6,212.12,236.9,224Z" style="fill:#eb9481"></path><path d="M298.93,277.1a85.09,85.09,0,0,0,11.73,2.73c3.14.34,12.18,1.09,12.9-2.32.5-2.33-4.77-3.4-8.48-4.23-2-.44-4.53-2-4.2-3.22.58-2.21,5.63-1,9,.28,6.57,2.42,15.61,7.26,18.72,3.6,1.18-1.38-.79-3.19-3.48-4.82,4.21,1.72,8.6,3,10,1.47a2,2,0,0,0,0-2.79,2.68,2.68,0,0,0,2.85-1c1-1.51.08-3.31-1.61-5a1.5,1.5,0,0,0,1-.94c1.91-4.44-13.16-13.58-17.87-13.86a115.85,115.85,0,0,0-27.78,2.21C297.16,254.31,298.92,277.09,298.93,277.1Z" style="fill:#eb9481"></path><path d="M316.35,261.43a22.84,22.84,0,0,1,9.47,1.86c3.76,1.64,6.46,3.85,9.75,6a.08.08,0,0,1-.09.14c-1.57-1-8-4.73-9.6-5.54a21.84,21.84,0,0,0-9.53-2.38A0,0,0,1,1,316.35,261.43Z" style="fill:#263238"></path><path d="M317.84,255.35a54,54,0,0,1,11,1.77c3.87,1.19,7.16,3.65,10.39,6q2.91,2.13,5.73,4.39a.08.08,0,0,1-.09.13q-4.92-3.67-10.07-7a28.89,28.89,0,0,0-10.46-4.29c-2.13-.41-4.29-.66-6.45-.91A0,0,0,0,1,317.84,255.35Z" style="fill:#263238"></path><path d="M320.71,249.76c3.52.1,6.59.18,9.92,1.47a49.81,49.81,0,0,1,10.56,6.31c1.76,1.33,3.49,2.72,5.19,4.13.07.06,0,.18-.1.12a115.68,115.68,0,0,0-12.16-8.45,23.05,23.05,0,0,0-6.46-2.75,41.58,41.58,0,0,0-7-.81S320.7,249.76,320.71,249.76Z" style="fill:#263238"></path><path d="M300.93,246.17,294.6,280s-28.84-4.57-34.6-9.45S241.39,238.5,237,225.09s2.56-13.92,10-6,25.9,27,26.85,27.31S300.93,246.17,300.93,246.17Z" style="fill:#ebebeb"></path><path d="M290.17,265.87c.77-4,1.59-8,2.22-12,.36-2.29.73-4.58,1.06-6.87,0-.08-.13-.12-.15,0-.94,4-1.88,8-2.63,12s-1.55,8-2.25,12q-.6,3.42-1,6.87c0,.05.07.06.08,0C288.59,273.91,289.38,269.9,290.17,265.87Z" style="fill:#263238"></path><path d="M288.51,279c-8.79-1.63-24.43-4.93-28.51-8.38-5.77-4.88-18.62-32.1-23.05-45.51-2.49-7.51-1.39-11,1.37-11.17C251.39,231,273,258,288.51,279Z" style="opacity:0.1"></path><path d="M255.4,282.6,253,257.88s5.6-4.82,4.93-11.59c-.52-5.19-13-25.76-17-30.33s-11.24-4.61-16.17,1.11c-12.57,14.63-23.91,39.58-29.64,67.27Z" style="fill:#590E85"></path><path d="M180.14,381.57l52.66-4.34s5.14-123.43,3.94-136.13c-.86-9.19-4.82-28.5-4.82-28.5s-7.9-1-21.79,25.36C184.07,287.45,180.14,381.57,180.14,381.57Z" style="fill:#ebebeb"></path><path d="M196.52,329.73c-.24,7.69.12,16.4,1.75,18,3.07,3,11.24,2.75,13.8,2.73s11.72,0,13.86-4.75c.95-2.08,1.2-12.82,1.17-16.63,0-1.54-.36-9.14-.47-10,0-.2-.57-.18-.59,0-.13.87,0,4-.09,4.62-14.73,1.89-23.85.31-28.57-.6,0-1.42,0-2.53,0-3.95a79.91,79.91,0,0,0,13.94,1.32c5.11,0,12.8-.76,15.3-1.08.12,0,0-.58-.14-.58-1.92,0-8.58.68-15.28.68a121.44,121.44,0,0,1-14.32-1.12C196.64,318.41,196.64,326,196.52,329.73Zm2.65,17.13c-1.63-1.87-1.83-7.25-1.83-10.46,0-4.43,0-8,0-12.39,11.33,2.64,23.81,1.34,28.54.38,0,.19.09,9.53,0,12.51-.11,3.8-.23,7.23-1.69,9.21-1.25,1.69-4.78,3.39-12.89,3.38C205.47,349.48,200.53,348.42,199.17,346.86Z" style="fill:#dbdbdb"></path><path d="M231.78,213.35q-.81,2.4-1.59,4.82L228.62,223q-1.55,4.83-3,9.69l-.09.29.26.18c1.72,1.22,3.44,2.43,5.18,3.63l-.13-.64-4.12,6.56-.14.22.11.24q2.34,5.06,4.77,10.06,1.2,2.51,2.44,5c.84,1.66,1.65,3.33,2.51,5-.7-1.73-1.44-3.44-2.15-5.15s-1.47-3.42-2.21-5.12c-1.5-3.4-3-6.79-4.56-10.17l0,.45,4.12-6.56.24-.39-.37-.26c-1.74-1.19-3.48-2.38-5.23-3.55l.16.48c.94-3.26,1.87-6.51,2.78-9.78l1.34-4.9C230.91,216.63,231.36,215,231.78,213.35Z" style="fill:#dbdbdb"></path><path d="M239.65,214.57l5.84,18.33,5.72,50.61h6s-3.8-24.63-3.76-25.1,6.55-5.65,5-14.06S241.94,215.25,239.65,214.57Z" style="fill:#ebebeb"></path><path d="M241.07,217.35c.68,1.29,1.39,2.56,2.09,3.83s1.41,2.54,2.13,3.8q2.15,3.79,4.35,7.56l.06-.52c-1.17,1.15-2.32,2.32-3.47,3.49l-.27.28.22.32,3.83,5.56-.08-.28q-.18,5.12-.25,10.23c0,1.71-.05,3.41-.05,5.12s0,3.41,0,5.12c.16-1.7.27-3.41.41-5.11s.23-3.4.33-5.11q.3-5.1.51-10.22v-.15l-.09-.13L247,235.57l-.05.6q1.71-1.77,3.39-3.55l.23-.25-.17-.27q-2.26-3.72-4.6-7.41c-.77-1.23-1.56-2.45-2.35-3.68S241.87,218.57,241.07,217.35Z" style="fill:#dbdbdb"></path><path d="M222.67,218.84c-11.19,10.91-39.12,53-31.28,61.25s53.94-.19,67-5.69c3.89-1.63-10.62-26.3-15.1-25.71-3,.39-22,6.06-22.49,4.94s2.89-10.28,8.26-26.62C235.28,208.17,227.61,214,222.67,218.84Z" style="fill:#eb9481"></path><path d="M262.85,242.89c8.88-.81,11.28.35,18.41-4.32,4.68-3.06,8.65-1.39,5.82,3.69-4.62,8.32-15.86,11.77-20.1,11.85Z" style="fill:#eb9481"></path><path d="M239,250.28s10.17-5,19.55-6.84c6.49-1.24,20.9-2.38,33.94,12.4,3.09,3.5,5,10.69-2.12,6.8-5.06-2.76-7.44-6-10.68-7.12,0,0,1.36,9.44-2.27,12.4A88,88,0,0,1,267.38,275a17.34,17.34,0,0,1-1.49-1.76s-3.66,2.45-10.28,1.5Z" style="fill:#eb9481"></path><path d="M264.94,243.24c3,1.74,9.27,5.55,13.32,10.44,4.5,5.44,11.71,17.12,7.66,20.4-3,2.41-6.11-1.81-6.11-1.81s2,5.46-1.2,7.05c-2.87,1.44-5.11-2-5.11-2s.62,3.52-2.42,4.38c-3.65,1-4.35-6.51-9-8.66C261.09,272.59,264.94,243.24,264.94,243.24Z" style="fill:#eb9481"></path><path d="M271.72,257.48a28,28,0,0,1,8.14,14.65c0,.15-.07.24-.12.12a69,69,0,0,0-8.07-14.73A0,0,0,0,1,271.72,257.48Z" style="fill:#263238"></path><path d="M266.37,262.18c2,2,6.41,8.69,7.25,15.12,0,.14-.09.23-.13.1a73.56,73.56,0,0,0-7.18-15.18S266.34,262.15,266.37,262.18Z" style="fill:#263238"></path><path d="M279.71,255.47c2.83,1,4.63,2.48,7,4.28a40.59,40.59,0,0,0,3.59,2.52c1.15.68,2.83,1.72,4.12.79a2.35,2.35,0,0,0,.64-2.32,11.5,11.5,0,0,0-1.42-3.35s0-.08.06,0a15.89,15.89,0,0,1,1.59,3,3.8,3.8,0,0,1,.16,2.26c-.5,1.56-2.38,1.68-3.68,1.18a11.82,11.82,0,0,1-2.21-1.2c-.68-.43-1.34-.9-2-1.38-1.33-1-2.59-2.05-3.9-3.05a37.42,37.42,0,0,0-4-2.59C279.6,255.53,279.65,255.45,279.71,255.47Z" style="fill:#263238"></path><path d="M285.25,265.87a88.77,88.77,0,0,0-5.61-10.34s0-.09.06-.05c2.15,2.23,5.48,8,6.24,9.89a15.7,15.7,0,0,1,1.49,6.14c-.14,3-2.16,3.48-2.9,3.59a3.9,3.9,0,0,1-2.54-.53,8,8,0,0,1-2.21-2.29s0-.1.06-.06c1,1.24,2.66,2.49,4.3,2.35a2.73,2.73,0,0,0,1.91-.92,3.52,3.52,0,0,0,.59-2.39A16.56,16.56,0,0,0,285.25,265.87Z" style="fill:#263238"></path><path d="M238.79,248.55l13.14,31.39s-57.69,10.13-62.14,0,19.54-48,30.07-58.87c12.19-12.58,13.46-8.05,10.36,3.47C227,236.55,221,253.92,221,253.92Z" style="fill:#ebebeb"></path><path d="M203.25,261.28a66.49,66.49,0,0,1,8.56-4.5,65,65,0,0,1,9-3.14c1.75-.48,3.52-.89,5.29-1.3a0,0,0,1,1,0,.08,83.11,83.11,0,0,0-9.1,3.06q-4.46,1.74-8.83,3.63c-1.65.72-3.27,1.51-4.9,2.28C203.24,261.43,203.18,261.32,203.25,261.28Z" style="fill:#263238"></path><path d="M238.64,248.45c-.29.06-16.15,4.48-16.67,4.69.08-.23,3.27-8.4,3.74-9.59l.14-.36c.31-.53.62-1.06.91-1.6l1.1-2.08s0,0,0,0l-1.19,2c-.18.31-.35.63-.52.95.32-.84.62-1.69.92-2.54.49-1.36.93-2.73,1.37-4.11,0,0,0-.06-.07,0-.94,2.38-2,4.74-2.91,7.11s-4.58,11.14-4.56,11.14,17.48-5.26,17.82-5.38C238.82,248.62,238.78,248.42,238.64,248.45Z" style="fill:#263238"></path><path d="M238.75,268.53c-1.45-3.51-2.87-7-4.44-10.47-.9-2-1.78-3.92-2.69-5.88,0-.07-.17,0-.14.06,1.31,3.57,2.63,7.15,4.11,10.66s2.9,7,4.41,10.48c.86,2,1.78,3.92,2.76,5.84,0,0,.09,0,.07,0C241.64,275.57,240.2,272.05,238.75,268.53Z" style="fill:#263238"></path><path d="M252.65,280.45c-.53-1-1.19-2.37-1.76-3.32-.15-.25-.34-.2-.22.06.4.87.71,1.86,1.1,2.76-.81.12-1.62.22-2.43.35l-2.8.46c-1.83.28-3.67.55-5.5.8q-5.58.76-11.19,1.29a217.77,217.77,0,0,1-22.55,1q-3.17,0-6.32-.22a59.8,59.8,0,0,1-6.19-.59c-.06,0-.07.09,0,.1a34,34,0,0,0,5.37,1q2.85.27,5.71.38c3.8.14,7.6.07,11.39-.1q11.3-.49,22.51-1.95c2.09-.27,4.18-.57,6.27-.88,1-.16,2.11-.32,3.16-.5S252.74,280.62,252.65,280.45Z" style="fill:#263238"></path><path d="M232.93,214.86c0,1.14,3.2,9.49,8.17,10.58,1.61.36,4-8.39,4-8.39l.32-.6,4.47-8.49-8.78-9.69L239.77,197s-1.07,2.4-2.37,5.41l-.19.42-.22.49c-.2.45-.4.9-.59,1.36s-.3.69-.44,1.06l-.44,1.1A60.7,60.7,0,0,0,232.93,214.86Z" style="fill:#eb9481"></path><path d="M237.4,202.37a19.23,19.23,0,0,0,8,14.08l4.47-8.49-8.78-9.69L239.77,197S238.7,199.36,237.4,202.37Z" style="fill:#263238"></path><path d="M266.31,185.13s3.32,2.73,3.34,5.7c0,4.86-3.66,11.48-3.66,11.48Z" style="fill:#263238"></path><path d="M266.78,198.69c-2.81,16.61-13.07,16.8-16.66,16.19-3.25-.55-14.25-2.84-13.17-19.64s9.69-20.75,17.19-19.88S269.59,182.09,266.78,198.69Z" style="fill:#eb9481"></path><path d="M264.15,195.65c-.38-.14-.7-.33-1.06-.5a1.89,1.89,0,0,1-1-.71.62.62,0,0,1,.17-.71,1.51,1.51,0,0,1,1.51,0A2.23,2.23,0,0,1,265,194.8.64.64,0,0,1,264.15,195.65Z" style="fill:#263238"></path><path d="M253.18,193.28a11.14,11.14,0,0,0,1.16,0,1.88,1.88,0,0,0,1.19-.19.6.6,0,0,0,.17-.71,1.46,1.46,0,0,0-1.34-.68,2.14,2.14,0,0,0-1.51.42A.64.64,0,0,0,253.18,193.28Z" style="fill:#263238"></path><path d="M254.59,197.91s-.1,0-.11.08c-.21,1.13-.64,2.38-1.73,2.53,0,0,0,.07,0,.07C254,200.68,254.57,199,254.59,197.91Z" style="fill:#263238"></path><path d="M253.84,196.52c-1.77-.53-2.7,3-1.06,3.54S255.33,197,253.84,196.52Z" style="fill:#263238"></path><path d="M253.09,196.53c-.37.12-.77.4-1.15.34s-.68-.53-.88-1c0,0-.05,0-.07,0a1.35,1.35,0,0,0,.61,1.75c.64.26,1.28-.22,1.63-.86C253.3,196.7,253.24,196.48,253.09,196.53Z" style="fill:#263238"></path><path d="M261.18,199.24s.08.07.07.11c-.24,1.13-.32,2.45.63,3,0,0,0,.07,0,.06C260.65,202,260.77,200.26,261.18,199.24Z" style="fill:#263238"></path><path d="M262.4,198.24c1.84.19,1.33,3.85-.37,3.68S260.86,198.08,262.4,198.24Z" style="fill:#263238"></path><path d="M263.09,198.53c.29.26.56.67.94.76s.83-.23,1.17-.56c0,0,.06,0,.06.05-.09.7-.46,1.39-1.23,1.39s-1.1-.69-1.18-1.42C262.83,198.61,263,198.43,263.09,198.53Z" style="fill:#263238"></path><path d="M252.25,206.57c.19.34.34.77.73.93a3.14,3.14,0,0,0,1.26.09s.06,0,0,.07a1.53,1.53,0,0,1-1.57.16,1.21,1.21,0,0,1-.57-1.23C252.13,206.52,252.23,206.52,252.25,206.57Z" style="fill:#263238"></path><path d="M257.9,203.69s-.18,1.72-.37,2.51c0,.07-.22.06-.49,0h0a3.82,3.82,0,0,1-3.28-2.28.08.08,0,0,1,.14-.08,5.82,5.82,0,0,0,3.17,1.81c.11-.2.21-3,.34-2.93a7.32,7.32,0,0,1,1.68.84c.48-3.57.38-7.19.91-10.73,0-.13.21-.12.21,0a57.55,57.55,0,0,1-.48,11.6C259.65,204.89,258.18,203.9,257.9,203.69Z" style="fill:#263238"></path><path d="M257,175.25c-7.7-2.48-14.62-2.42-18.73.66-8.57,6.42-8.17,21.09-11.71,23-9.23,4.93-4.63,8.67-7.23,10.66-2.14,1.63-9,1.67-8.52,9.56l29.68,7.31c2.09-4.66-2.17-8.49-1.62-12s5.48-5.94.76-14.91C236.59,193.67,257,175.25,257,175.25Z" style="fill:#263238"></path><path d="M236.35,194.6c1.84.63,6.13,2.06,9.48.51,1.84-.86,3.73-2.64,5.54-6.26,3.16-6.32,8.84-9.5,14.94-3.72,0,0,3.13-5.81-.42-9.36s-8.87-.52-8.87-.52-9-3.36-15.8,2.34S236.35,194.6,236.35,194.6Z" style="fill:#263238"></path><path d="M260.05,199.48c.59-2.88,2.62-4.91,4.52-4.52s3,3,2.39,5.93-2.62,4.91-4.53,4.52S259.46,202.36,260.05,199.48Zm.7.14c-.51,2.5.31,4.78,1.83,5.09s3.17-1.47,3.68-4-.31-4.77-1.83-5.09S261.26,197.13,260.75,199.62Z" style="fill:#37474f"></path><path d="M246.92,196.79a5,5,0,1,1,3.81,6.22A5.17,5.17,0,0,1,246.92,196.79Zm.7.15a4.28,4.28,0,1,0,5.1-3.67A4.45,4.45,0,0,0,247.62,196.94Z" style="fill:#37474f"></path><path d="M256.53,198.27c2.81-.38,3.81.72,3.82.73l.54-.47c0-.05-1.22-1.41-4.45-1Z" style="fill:#37474f"></path><path d="M247.35,196.4l.17-.7c-.46-.11-7.51-2.12-8.69-2.25s-4.23,1.33-4.57,1.49l.32.64c.84-.42,3.2-1.48,4.12-1.43h.05C239.66,194.26,243.49,195.47,247.35,196.4Z" style="fill:#37474f"></path><path d="M241.38,196.32s-2.23-6-4.87-5.34-1.88,8.74.57,10.45a2.85,2.85,0,0,0,4.08-.53Z" style="fill:#eb9481"></path><path d="M236.78,193.29s-.07,0,0,.07c1.7,1.26,2.24,3.28,2.47,5.29a1.57,1.57,0,0,0-2.17-1c-.06,0,0,.11,0,.12a1.75,1.75,0,0,1,1.72,1.07,8.67,8.67,0,0,1,.5,1.74c0,.2.37.18.36,0v0C240.32,198.08,239.32,194.21,236.78,193.29Z" style="fill:#263238"></path></g><g id="freepik--Device--inject-201"><rect x="257.65" y="266.76" width="70.47" height="3.16" style="fill:#c7c7c7"></rect><polygon points="328.12 266.76 328.12 269.92 280.22 269.92 282.63 266.76 328.12 266.76" style="fill:#a6a6a6"></polygon><polygon points="289.91 269.92 351.58 269.92 360.51 226.41 298.83 226.41 289.91 269.92" style="fill:#a6a6a6"></polygon><polygon points="292.79 269.92 354.46 269.92 363.39 226.41 301.71 226.41 292.79 269.92" style="fill:#c7c7c7"></polygon><path d="M333.65,246.54a4.34,4.34,0,0,1-3.07,4.39c-1.76.37-3.24-1-3.31-3.06a4.33,4.33,0,0,1,3.07-4.38C332.11,243.12,333.59,244.49,333.65,246.54Z" style="fill:#fff"></path></g><g id="freepik--character-1--inject-201"><path d="M181,466.35c-2.51.83-74.2.62-76.93-1.11-1-.65-1.62-11.1-2-23.74-.07-2.73-.13-5.54-.17-8.41-.06-3.39-.1-6.82-.12-10.16-.09-15,.12-28.15.12-28.15h46.67l0,28.15v10.16l-.24,8.41s27.41,12.36,30.19,14.59S183.46,465.52,181,466.35Z" style="fill:#ffc4c0"></path><path d="M181,466.34c-2.51.84-74.2.63-76.93-1.1-1-.61-1.54-9.71-1.87-21.16,5.74,2.66,55.32,12.84,67,13,11.21.11-6.63-8.93-9.48-10.33,7.88,3.66,17.24,8.12,18.81,9.37C181.27,458.31,183.46,465.53,181,466.34Z" style="fill:#263238"></path><path d="M76.69,189.88s24.47,113.69,26.19,122.76c.4,2.07-4.73,121.24-4.73,121.24h53.52s0-105.26-2.16-123.38-29.9-120.62-29.9-120.62Z" style="fill:#263238"></path><path d="M76.69,189.88s11.9,50.63,19.7,89.87l23.23-89.87Z" style="fill:#37474f"></path><path d="M142.77,420.72c-.69-29.74-1.4-77.57-2.13-107.2-.19-2.71-1.35-7.32-1.82-10-4.61-22.3-9.77-46.87-14.24-69.07,5.14,22,10.53,46.61,15.19,68.87.5,2.82,1.67,7.37,1.85,10.18.81,35.72,1,71.56,1.15,107.27Z" style="fill:#455a64"></path><path d="M119.36,466.86c-2.52.81-74.21-.09-76.92-1.85-1-.66-1.51-11.12-1.73-23.76-.05-2.73,1.78-46.47,1.78-46.47l45.17.2-.73,46.72s27.29,12.62,30.06,14.88S121.87,466.06,119.36,466.86Z" style="fill:#ffc4c0"></path><path d="M119.36,466.86c-2.52.81-74.21-.09-76.93-1.85-.91-.59-1.38-8.92-1.63-19.62,10.38,3.12,54.69,11.14,65.62,11,9.92-.1-3-6.89-8.15-9.4,7.85,3.73,17.16,8.28,18.71,9.55C119.75,458.82,121.87,466.06,119.36,466.86Z" style="fill:#263238"></path><path d="M90.68,434.84H36.17s10.33-80.51,11.15-94c.41-6.9,4.81-77.67,8.81-110.85a56,56,0,0,1-1.52-15.61c.24-8.2,8.13-24.5,8.13-24.5h56.92s-.9,19.59-7.43,36a100,100,0,0,0-14.83,6.61s-2.87,98.18-3.78,115.76C92.46,370.52,90.68,434.84,90.68,434.84Z" style="fill:#263238"></path><path d="M83,428.56c1.27-29.47,3.53-72.64,5.17-102.32.69-28.34,1.55-62,2.54-90.37-.3,28.44-1,62-1.56,90.41C87.48,356,85,399.05,83,428.56Z" style="fill:#455a64"></path><path d="M112.78,140.71c1.49,26.39,6.59,52.88,12.64,57.79,8.69,7,29.81,17.93,43.39,20.23,4,.67,12.56-24.71,8.51-26.21-5.56-2.06-32-13.68-32.46-13.91-1-.52-18.3-33.77-21-40.6C119.26,126,112,126.54,112.78,140.71Z" style="fill:#ffc4c0"></path><path d="M160.05,215.53c2.94,1.34,18.79,8.77,23,9.28s16.46,1.08,17.17-2.11-2.85-3.64-2.85-3.64,5.21-.57,5.63-3.85-5.14-3.8-5.14-3.8,5.3-1,5.49-4.28-5.5-2.89-5.5-2.89,4.89-.67,3.91-3.45c-1.18-3.35-10.06-1.1-14.67-2-1-.21-20.94-5.7-20.94-5.7Z" style="fill:#ffc4c0"></path><path d="M198.35,204.21c-6.53,1.64-9.67,1.23-16-.84-.13,0-.21.14-.09.19,6,2.59,9.85,3.67,16.16,1C198.76,204.39,198.66,204.14,198.35,204.21Z" style="fill:#263238"></path><path d="M198.38,211.27c-6.93,1.11-10.34.69-17.1-1a.09.09,0,0,0-.05.17c6.49,2.2,10.37,3.19,17.15,1.18C198.69,211.53,198.7,211.22,198.38,211.27Z" style="fill:#263238"></path><path d="M197,219c-6.79.59-10.55.3-16.91-2.18a.13.13,0,0,0-.1.23c6.23,3.15,10.92,3.56,17,2.16C197.45,219.08,197.47,218.93,197,219Z" style="fill:#263238"></path><path d="M163,188.74s8.06-2.51,11.84-2.84,18.33,3.67,17.64,6.86c-.88,4.12-9.73,3.47-14,2.58,0,0-2,9.53-8.48,10.44S163,188.74,163,188.74Z" style="fill:#ffc4c0"></path><path d="M191.9,193.81c-3.51,3.18-9.07,1.65-13.3,1.11a.39.39,0,0,0-.45.45c-1.12,3.94-3.84,9.17-7.93,10.57a.1.1,0,0,0,.05.19c4.59-.91,7.68-5.83,8.63-10.22,4.33.63,10,1.91,13-2.07A0,0,0,1,0,191.9,193.81Z" style="fill:#263238"></path><path d="M168.32,185.85l-12.59,30.67S125.5,204,122.43,197.11s-10-36.63-10.18-55.66S120.11,128,125.39,139c5.46,11.36,19.38,39,19.86,39.16S168.32,185.85,168.32,185.85Z" style="fill:#ebebeb"></path><path d="M162.15,185.65c0-.09-.13-.16-.17-.06a255.81,255.81,0,0,0-11,25.75c0,.1.12.17.17.07A257.31,257.31,0,0,0,162.15,185.65Z" style="fill:#263238"></path><path d="M158.39,210l-2.66,6.48S125.5,204,122.43,197.11s-10-36.63-10.18-55.66c-.09-9.72,2-13,4.76-12.39Z" style="opacity:0.1"></path><path d="M111.17,105.64a4.21,4.21,0,0,0-1.54.73c-2.09,1.57-2.66,4.29-2.7,6.75,0,2.62.55,5.43-.36,8a4.34,4.34,0,0,1-1.89,2.43,4,4,0,0,1-3.33,0c-1.14-.4-2.4-1.13-3.65-.75a3.44,3.44,0,0,0-2,2.29c-.84,2.56.63,5.26.84,7.81a13.58,13.58,0,0,1-1.75,7.86,13.25,13.25,0,0,1-5.49,5.18,12.72,12.72,0,0,1-3.53,1.21c-1.37.25-2.77.2-4.15.39a4.85,4.85,0,0,0-3.45,1.75c-.59.87-.75,4.73,2,8.61.19.28-.32.61-.62.4A17.38,17.38,0,0,1,77.82,157a18.21,18.21,0,0,1-6.09-15.45,18.94,18.94,0,0,1,3.16-8.61,30.61,30.61,0,0,0,2.76-4.37,9.5,9.5,0,0,0,.75-4.44c-.15-2.9-1-5.74-.64-8.67a16,16,0,0,1,2.89-7.25,18.9,18.9,0,0,1,13.72-7.7C99.74,100,111.47,105.56,111.17,105.64Z" style="fill:#263238"></path><path d="M111,105.69a7.45,7.45,0,0,0-2.84,1.77,6.18,6.18,0,0,0-1.39,2.7,17.24,17.24,0,0,0,.18,6.71c.31,2.09.53,4.32-.45,6.28a5.1,5.1,0,0,1-1.84,2.09,3.91,3.91,0,0,1-3,.33c-1.85-.44-4-1.58-5.81-.27s-1.46,3.83-1.3,5.69c.39,4.52,1.57,10.33-2.31,13.77A16.85,16.85,0,0,1,85,148.07c-1.82.42-4.12,1-5,2.78,0,.07.07.11.11,0,1-1.93,3.38-2,5.26-2.41a17.59,17.59,0,0,0,6.33-2.4,8.75,8.75,0,0,0,3.7-5.42,20.1,20.1,0,0,0,.14-6.92c-.13-1.19-.28-2.37-.38-3.55a7.44,7.44,0,0,1,.26-3.22,2.55,2.55,0,0,1,2.52-1.66,13.41,13.41,0,0,1,3.23.75,5.15,5.15,0,0,0,2.91.06,4.65,4.65,0,0,0,2-1.31,7.32,7.32,0,0,0,1.77-5c0-2.57-.85-5.06-.81-7.63a6.06,6.06,0,0,1,4.1-6.23C111.28,105.86,111.16,105.62,111,105.69Z" style="fill:#263238"></path><path d="M92.42,99.07a15.46,15.46,0,0,0-12.51,9.06,19.08,19.08,0,0,0-1.68,8.78c.1,2.81.59,5.67.07,8.47-.57,3.1-2.73,5.34-4.5,7.81a16.91,16.91,0,0,0-2.87,6.69,18.06,18.06,0,0,0,2.79,13.52c.34.49.7,1,1.09,1.43,0,.06.14,0,.09-.07a17.41,17.41,0,0,1-3.57-13.32,17.06,17.06,0,0,1,2.26-6.53c1.48-2.45,3.67-4.44,4.83-7.1,1.08-2.5,1-5.28.74-7.93a25.29,25.29,0,0,1,.32-8.59,15.54,15.54,0,0,1,10.76-11.17c6-1.57,11.9.92,17,3.83l2,1.18c.08,0,.16-.07.08-.12C104.33,101.79,98.63,98.62,92.42,99.07Z" style="fill:#263238"></path><path d="M113.12,103.08a2.61,2.61,0,0,0-2.53-.66c-.53.33-2.18,4.9-1.6,6s2.67.3,2.67.3Z" style="fill:#590E85"></path><path d="M124.74,179.32l-3.15,18.19L66,186.78s12.58-40.08,30.43-55.32c9.27-7.91,17.79-5.34,22.7,1.57,1.24,1.75,11.34,24.75,11.75,34A14.45,14.45,0,0,1,124.74,179.32Z" style="fill:#455a64"></path><path d="M113.5,175a50.29,50.29,0,0,0-7.36.3c-1.21.16-2.41.37-3.6.61-.6.12-1.2.21-1.8.31a7.6,7.6,0,0,1-1.9.12,0,0,0,0,0,0,.09,13.41,13.41,0,0,0,1.79.19,12.76,12.76,0,0,0,1.75-.12c1.23-.14,2.45-.35,3.68-.51,2.48-.32,5-.64,7.46-.79C113.62,175.18,113.62,175,113.5,175Z" style="fill:#263238"></path><path d="M119.24,177.87a52.41,52.41,0,0,0-6-1c-1-.11-2-.16-3-.19-.48,0-1,0-1.45,0s-1.07.07-1.6.07c-.06,0-.07.08,0,.08.5,0,1,.13,1.5.18l1.51.14c1,.1,2,.21,3,.3,2,.18,4,.38,6,.63C119.34,178.05,119.35,177.89,119.24,177.87Z" style="fill:#263238"></path><polygon points="122.61 203.03 61.12 191.22 65.11 184.57 121.95 195.48 122.61 203.03" style="fill:#590E85"></polygon><polygon points="122.61 203.03 61.12 191.22 65.11 184.57 121.95 195.48 122.61 203.03" style="opacity:0.30000000000000004"></polygon><path d="M113.32,202.42l-15.62-3L99.51,190l15.62,3ZM100,197.83l11.69,2.25,1-5.5-11.69-2.24Z" style="fill:#590E85"></path><path d="M117.39,130.78s3.34,29.56,3.21,34.2-7,103.17-7,103.17L134.33,262c.14-.29-8.81-50.16-9.05-55.51-.66-14.72-.37-26.49-.28-26.67.22-.43,7.75-5.33,6.47-13.54-1.73-11.07-7.18-23.43-10.6-30.55C118.8,131.39,117.39,130.78,117.39,130.78Z" style="fill:#ebebeb"></path><path d="M105.9,126.51s-6,35.5-6.16,38.83S79.42,267.1,79.42,267.1L37.18,251.22s27-79.56,51.18-112.4C97.62,126.23,105.9,126.51,105.9,126.51Z" style="fill:#ebebeb"></path><path d="M106,129.3c0,1.19,3.33,9.85,8.49,11,1.68.36,4.08-8.72,4.08-8.72l.33-.63,4.62-8.81-9.12-10L113,110.72s-1.11,2.5-2.45,5.62c-.06.14-.13.29-.19.44s-.16.34-.23.51c-.21.46-.41.93-.61,1.41s-.31.72-.45,1.1-.3.76-.46,1.14A64.35,64.35,0,0,0,106,129.3Z" style="fill:#ffc4c0"></path><path d="M110.56,116.34a20,20,0,0,0,8.29,14.59l4.62-8.81-9.12-10L113,110.72S111.9,113.22,110.56,116.34Z" style="fill:#263238"></path><path d="M140,113.63c-5.05,16.73-15.64,15.59-19.24,14.5-3.27-1-14.29-4.79-11-21.94S122.46,86.09,130.07,88,145.08,96.91,140,113.63Z" style="fill:#ffc4c0"></path><path d="M137.24,110.84c-.36-.2-.66-.45-1-.68s-.71-.44-.89-.89a.62.62,0,0,1,.29-.7,1.52,1.52,0,0,1,1.54.24,2.27,2.27,0,0,1,1,1.28A.67.67,0,0,1,137.24,110.84Z" style="fill:#263238"></path><path d="M125.68,109a11,11,0,0,0,1.11.49,2,2,0,0,0,1.23.27.62.62,0,0,0,.43-.62,1.5,1.5,0,0,0-1-1.17,2.23,2.23,0,0,0-1.62-.17A.66.66,0,0,0,125.68,109Z" style="fill:#263238"></path><path d="M133.51,113.75s.06.09,0,.13c-.51,1.08-.92,2.4-.09,3.19,0,0,0,.08,0,.06C132.3,116.44,132.85,114.69,133.51,113.75Z" style="fill:#263238"></path><path d="M135,113c1.82.64.42,4.22-1.27,3.64S133.46,112.5,135,113Z" style="fill:#263238"></path><path d="M135.64,113.56c.2.3.35.76.68.91s.82-.09,1.22-.37c0,0,.06,0,0,.06-.25.7-.76,1.32-1.46,1.2s-.86-.88-.76-1.63C135.38,113.6,135.55,113.44,135.64,113.56Z" style="fill:#263238"></path><path d="M123.75,120.76c.13.38.22.85.6,1.07a3.32,3.32,0,0,0,1.28.29,0,0,0,0,1,0,.07,1.59,1.59,0,0,1-1.64-.07,1.28,1.28,0,0,1-.39-1.36C123.64,120.69,123.73,120.71,123.75,120.76Z" style="fill:#263238"></path><path d="M130,118.69s-.45,1.73-.77,2.51c0,.07-.24,0-.51-.06,0,0,0,0,0,0a4,4,0,0,1-3-2.85.09.09,0,0,1,.16-.06,6,6,0,0,0,3,2.35c.14-.19.68-3,.8-3a7.13,7.13,0,0,1,1.6,1.13c1-3.6,1.51-7.33,2.61-10.9a.11.11,0,0,1,.22,0,60.45,60.45,0,0,1-2.31,11.85C131.61,120.19,130.26,119,130,118.69Z" style="fill:#263238"></path><path d="M124.08,110.84a3.63,3.63,0,0,1,1,.19,3.57,3.57,0,0,1,.91.47,2.86,2.86,0,0,1,.73.78,2.48,2.48,0,0,1,.33,1.06l.06.67-.59-.34a6.52,6.52,0,0,0-1.32-.58,3,3,0,0,0-1.47-.13,2.16,2.16,0,0,1,1.57-.39,4.28,4.28,0,0,1,1.58.49l-.54.34a2.37,2.37,0,0,0-.74-1.44A7.45,7.45,0,0,0,124.08,110.84Z" style="fill:#263238"></path><path d="M124.75,114.08a6.3,6.3,0,0,0,1.56.09c.13,0,.63-.13.64-.21a2.82,2.82,0,0,0,0-.78,2,2,0,0,1,.1.82,1,1,0,0,1-.76.4A3.15,3.15,0,0,1,124.75,114.08Z" style="fill:#263238"></path><path d="M109.71,108a7.11,7.11,0,0,0,6.05-3.59,18.54,18.54,0,0,0,9.43-2.37c-.25.28-2.09,2.26-3.06,3.25,10.82,2.73,17.41-3.47,17.41-3.47a18.84,18.84,0,0,1,1.43,8.31s2.89-6.07,1.64-11.61a10.86,10.86,0,0,0-7.22-8.25,15.49,15.49,0,0,0-15.69-2.11C110,92.21,109.71,108,109.71,108Z" style="fill:#263238"></path><path d="M130.46,107.11a20.25,20.25,0,0,1-6-.48s0,0,0,0a16.78,16.78,0,0,0,12.88-3,11.37,11.37,0,0,0,3.07-3.19c.05-.09.2,0,.15.08A13.11,13.11,0,0,1,138,104a12,12,0,0,1-3.73,2.28,14.27,14.27,0,0,1-3.81.83" style="fill:#263238"></path><path d="M112.6,107.29s-1.52-6.47-4.32-6.13-3.07,8.75-.77,10.83a3,3,0,0,0,4.26,0Z" style="fill:#ffc4c0"></path><path d="M108.27,103.57a0,0,0,0,0,0,.07c1.59,1.52,1.88,3.67,1.85,5.77a1.63,1.63,0,0,0-2.1-1.32c-.06,0,0,.11,0,.12a1.83,1.83,0,0,1,1.63,1.33,9.73,9.73,0,0,1,.29,1.86c0,.2.36.24.37,0v0C111.28,109,110.76,104.85,108.27,103.57Z" style="fill:#263238"></path><path d="M106,128s2.56-3.65,6.31-2.44c2.38.76,5.1,7.67,5.1,7.67s1,21.34-2.67,20.5C110.27,152.71,105.24,128.78,106,128Z" style="fill:#ffc4c0"></path><path d="M96.88,129.41c-22.11,17.76-43.69,48.27-43.67,65.19,0,16.71,5.83,15,7.48,14.9C70.78,208.73,94,162,101.07,142.93S102.34,125,96.88,129.41Z" style="fill:#ebebeb"></path><path d="M74,196.3c1.14-2.12,2.32-4.21,3.44-6.35l3.4-6.36c2.25-4.25,4.54-8.48,6.72-12.76S92,162.29,94.11,158c1.08-2.15,2.15-4.31,3.17-6.48s2-4.36,3-6.56a129.49,129.49,0,0,1-5.38,13.42c-2,4.39-4.17,8.69-6.36,13S84,179.86,81.6,184,76.69,192.33,74,196.3Z" style="fill:#263238"></path><path d="M98,150.59a22,22,0,0,1,1.36-2.2c.24-.34.48-.69.74-1s.51-.69.81-1a6.7,6.7,0,0,1-1.07,2.39A7.07,7.07,0,0,1,98,150.59Z" style="fill:#263238"></path><path d="M112.37,234.53h5.77s1.39-21.22,14.23-22.28c6.8-.56,13.06,4.29,17.94,9.73-4.83-5.49-13.39-12.57-21.55-12.57C116.46,209.4,112.37,234.53,112.37,234.53Z" style="fill:#455a64"></path><polygon points="150.47 168.81 141.63 150.78 138.64 154.83 146.22 168.81 150.47 168.81" style="fill:#263238"></polygon><rect x="129.96" y="160.15" width="21.62" height="5.19" transform="translate(62.4 363.14) rotate(-117.78)" style="fill:#455a64"></rect><polygon points="143.51 173.52 140.76 172.77 132.46 157.39 133.43 154.39 143.51 173.52" style="fill:#37474f"></polygon><rect x="166.69" y="170.18" width="3.73" height="13.69" rx="1.13" transform="translate(394.4 270.54) rotate(156.09)" style="fill:#37474f"></rect><rect x="156.17" y="176.49" width="3.73" height="13.69" rx="1.13" transform="translate(376.78 286.96) rotate(156.11)" style="fill:#37474f"></rect><rect x="162.02" y="174.08" width="5.19" height="17.63" rx="1.57" transform="translate(389.2 283.45) rotate(156.11)" style="fill:#37474f"></rect><rect x="141.98" y="121.6" width="5.19" height="17.63" rx="1.57" transform="translate(329.58 191.08) rotate(156.1)" style="fill:#37474f"></rect><rect x="134.22" y="125.03" width="5.19" height="17.63" rx="1.57" transform="translate(316.1 200.84) rotate(156.11)" style="fill:#37474f"></rect><path d="M168.11,171.09l-18.55-38.67s-5.3.18-14.48,6.54l19.7,38.57A37,37,0,0,0,168.11,171.09Z" style="fill:#37474f"></path><path d="M151.09,180.76s17.5-5.15,22.31-9.88l-1.53-3.45a47.11,47.11,0,0,0-22.31,9.88Z" style="fill:#455a64"></path><path d="M134.41,140.06a39.21,39.21,0,0,1,16.33-7.67l-1.6-3.42c-9.94-.18-16.33,7.67-16.33,7.67Z" style="fill:#455a64"></path><path d="M147.3,163.32s7.65-5.06,14.25-6.7a.71.71,0,0,0,.36-1l-1.8-3.83a.82.82,0,0,0-1-.36,39.29,39.29,0,0,0-14.25,6.69.77.77,0,0,0-.37,1l1.8,3.82A.77.77,0,0,0,147.3,163.32Z" style="fill:#455a64"></path><path d="M135,158.6l-1.38-.62s-19.31,8.55-18.33,31.58c.66,15.25,11.78,25.8,11.78,25.8s-13.52-17.47-8.46-33.63S135,158.6,135,158.6Z" style="fill:#455a64"></path><path d="M116.81,191.15c1.11,14.06,10.22,24.21,10.22,24.21h13.85c6.35-8.35,16.45-13.23,16.45-13.23l-11.06,1.93-1-.5-1.94-1s-2.81,4.29-7,4.19a6.5,6.5,0,0,1-2.5-.56c-4.93-2.13-7.41-15.22-5.1-23s12.41-12.63,12.41-12.63L135,158.6C123.94,163.54,115.72,177.08,116.81,191.15Z" style="fill:#37474f"></path><path d="M136.31,206.77s3.62,1.23,9-3.2l-1.94-1s-2.81,4.29-7,4.19Z" style="fill:#455a64"></path><path d="M118.14,234.53l41.29,0c-1-1.61-2.81-4.51-5.18-7.7l-.15-.21-.18-.25-.12-.16-.36-.47-.1-.13-.39-.49q-.3-.4-.69-.87l-.54-.65c-.28-.34-.58-.7-.9-1.07q-.24-.28-.51-.57c-4.88-5.44-11.14-10.29-17.94-9.73C119.53,213.31,118.14,234.53,118.14,234.53Z" style="fill:#37474f"></path><rect x="147.76" y="197.45" width="40.73" height="5.16" transform="translate(352.21 385.47) rotate(175.26)" style="fill:#263238"></rect><rect x="138.81" y="199.51" width="9.03" height="5.16" transform="translate(302.88 391.63) rotate(175.26)" style="fill:#37474f"></rect><path d="M151.29,231.15a1.4,1.4,0,1,0,1.4-1.4A1.39,1.39,0,0,0,151.29,231.15Z" style="fill:#263238"></path><path d="M122.26,231.13a1.4,1.4,0,1,0,1.4-1.4A1.4,1.4,0,0,0,122.26,231.13Z" style="fill:#263238"></path><path d="M133.78,216.76a1.4,1.4,0,1,0,1.4-1.4A1.4,1.4,0,0,0,133.78,216.76Z" style="fill:#263238"></path><path d="M144.56,141.77a1.4,1.4,0,1,0,1.4-1.39A1.4,1.4,0,0,0,144.56,141.77Z" style="fill:#263238"></path><path d="M156.65,167.42a1.4,1.4,0,1,0,1.4-1.4A1.4,1.4,0,0,0,156.65,167.42Z" style="fill:#263238"></path><path d="M131.06,167.9a1.4,1.4,0,1,0,1.4-1.4A1.4,1.4,0,0,0,131.06,167.9Z" style="fill:#263238"></path><path d="M141.49,208.29a1.4,1.4,0,1,0,1.4-1.39A1.39,1.39,0,0,0,141.49,208.29Z" style="fill:#263238"></path><rect x="99.3" y="234.55" width="82.4" height="35.41" style="fill:#37474f"></rect><rect x="99.3" y="234.55" width="12.94" height="35.41" style="fill:#455a64"></rect><path d="M57.2,208.83c7.3,1.88,17.22-2.82,43.23-17.56,3.6-2-4-31.31-7.91-29.33-5,2.49-23.78,13.25-25.06,14.21C56.71,184.26,52.25,207.56,57.2,208.83Z" style="fill:#ffc4c0"></path><path d="M83,169.43s7.94-8.8,13.54-12.13c7.5-4.46,15.82-5.22,19.32-5.33,7.31-.23,25.15,4.28,24.74,9.64-.36,4.86-18.36-.67-18.36-.67s19.28,2.61,17.77,8.37-22-1.84-22-1.84,19.75,3.12,17.25,8.82c-1.89,4.31-20.87-1.53-20.87-1.53s17,2.8,15.21,7.31c-1.94,5-19.8.7-19.8.7-6.39,10.72-14,13.07-19.53,14.21C88.87,197.26,83,169.43,83,169.43Z" style="fill:#ffc4c0"></path><path d="M115.6,159.61c2.28.22,4.58.44,6.83.86s4.48.93,6.68,1.57a38.74,38.74,0,0,1,8.32,3.27c-4.86-2.15-12.89-3.8-15.14-4.23s-4.46-1-6.71-1.38C115.53,159.68,115.55,159.6,115.6,159.61Z" style="fill:#263238"></path><path d="M113.92,167.7c2.89.41,5.78.72,8.65,1.26s5.54,1.29,8.35,2c.22,0,.12.15-.1.1-2.85-.62-5.52-1-8.38-1.56s-5.68-1.28-8.54-1.76A0,0,0,0,1,113.92,167.7Z" style="fill:#263238"></path><path d="M111.22,174.38a65.25,65.25,0,0,1,13.09,2.94c.22.06.07.17-.15.12-4.33-1.06-7.73-1.92-13-2.9C111.13,174.52,111.13,174.38,111.22,174.38Z" style="fill:#263238"></path><path d="M83.41,165.62l5.47,35.53s-27.09,12-32.23,7.41.81-24.07,8-30.92C67.69,174.79,83.41,165.62,83.41,165.62Z" style="fill:#ebebeb"></path><path d="M83.59,166.8l-.24-1.18.09,0c-2.62,1.68-5.25,3.34-7.85,5s-5.2,3.39-7.7,5.22a34.72,34.72,0,0,0-3.59,2.87,26.86,26.86,0,0,0-3,3.48,29.57,29.57,0,0,0-4,8.29,24.45,24.45,0,0,1,3.51-8.66,21.85,21.85,0,0,1,3-3.67,35.65,35.65,0,0,1,3.64-3c2.54-1.83,5.17-3.5,7.83-5.12s5.4-3.13,8.17-4.55l.08,0v.09Z" style="fill:#263238"></path><path d="M76.86,173.52c.39,1.76.62,3.56.9,5.34s.54,3.56.78,5.34c.48,3.58.94,7.15,1.35,10.73.11,1,.22,2,.32,2.94s.07,2.11.18,3.16c0,.08-.11.09-.13,0-.13-.87-.39-1.73-.54-2.6s-.29-1.81-.42-2.72c-.26-1.79-.51-3.57-.75-5.36-.48-3.56-1-7.14-1.31-10.72-.21-2-.47-4.06-.56-6.1A.09.09,0,0,1,76.86,173.52Z" style="fill:#263238"></path><path d="M88.39,198c.3,1.1.55,2.2.77,3.31l-.18.08c-6.17,2.66-26,10.46-31.77,7.76a6.73,6.73,0,0,1-2.66-3.85,6.83,6.83,0,0,0,2.81,3.59c5.4,2.17,25.31-5.68,31.43-7.95l-.15.26c-.12-1.06-.2-2.13-.25-3.2Z" style="fill:#263238"></path></g><g id="freepik--Desk--inject-201"><rect x="364.31" y="207.17" width="2.91" height="60.76" style="fill:#263238"></rect><rect x="379.6" y="199.38" width="2.91" height="22.5" transform="translate(170.43 591.68) rotate(-90)" style="fill:#263238"></rect><rect x="367.22" y="207.75" width="2.59" height="5.75" style="fill:#37474f"></rect><rect x="361.18" y="267.93" width="9.17" height="1.99" style="fill:#263238"></rect><g style="opacity:0.7000000000000001"><path d="M396.73,233.57a16.21,16.21,0,1,1-20.42-15.69l.05-13.13h-1.31v-2.57l11.11,0v2.58h-1.32l0,13.12A16.19,16.19,0,0,1,396.73,233.57Z" style="fill:#fff"></path><path d="M396.73,233.57a16.23,16.23,0,0,1-9.05,14.54,16.32,16.32,0,0,1-23.24-17.77,16.21,16.21,0,0,1,4.09-8,16.51,16.51,0,0,1,7.72-4.66l-.17.23v-6.56l0-6.57.23.23h-1.53v-3h.21l11.11.09h.15v.15l0,2.58v.13h-1.45l.13-.12-.14,13.12,0,0a16.23,16.23,0,0,1,11.93,15.71Zm0,0a16.19,16.19,0,0,0-12-15.63h0v0l0-13.12v-.13h1.44l-.14.14V202.2l.15.15-11.11,0,.22-.21v2.57l-.22-.22h1.54v6.79l0,6.56v.18l-.17,0a16.08,16.08,0,1,0,11.29,30,16.18,16.18,0,0,0,9.07-14.48Z" style="fill:#263238"></path></g><path d="M367.22,233.51a12.81,12.81,0,0,1,9-12.28" style="fill:#fff"></path><path d="M393.88,234.88a13.43,13.43,0,0,1-26.72,0Z" style="fill:#590E85"></path><circle cx="389.64" cy="230.76" r="1.22" style="fill:#590E85"></circle><path d="M384.6,233.51a.79.79,0,1,1-.79-.79A.79.79,0,0,1,384.6,233.51Z" style="fill:#590E85"></path><path d="M374.91,229.19a.79.79,0,1,1-.79-.78A.79.79,0,0,1,374.91,229.19Z" style="fill:#590E85"></path><path d="M386.44,227.8a.6.6,0,1,1-.6-.6A.6.6,0,0,1,386.44,227.8Z" style="fill:#590E85"></path><path d="M370.84,233.51a.61.61,0,1,1-.6-.6A.6.6,0,0,1,370.84,233.51Z" style="fill:#590E85"></path><path d="M372.86,233a.25.25,0,1,1-.24-.24A.25.25,0,0,1,372.86,233Z" style="fill:#590E85"></path><rect x="374.76" y="263.57" width="11.76" height="6.35" style="fill:#dbdbdb"></rect><rect x="380.38" y="261.02" width="0.52" height="2.55" style="fill:#263238"></rect><path d="M380.64,261.63c-3.4,0,0-6.85,0-6.85S384.05,261.63,380.64,261.63Z" style="fill:#590E85"></path><path d="M380.64,261.63c-3.4,0,0-6.85,0-6.85S384.05,261.63,380.64,261.63Z" style="opacity:0.2"></path><path d="M380.64,261.63c-2.09,0,0-4.22,0-4.22S382.74,261.63,380.64,261.63Z" style="fill:#590E85"></path><rect x="185.18" y="239.85" width="1.54" height="30.07" style="fill:#263238"></rect><rect x="186.72" y="267.81" width="32.85" height="2.11" style="fill:#263238"></rect><path d="M198,237.85,197.83,263a3,3,0,0,1-5.94,0l.12-25.17Z" style="fill:#ebebeb"></path><path d="M197.57,245.14,197.49,263a2.63,2.63,0,0,1-5.25,0l.08-17.88Z" style="fill:#c7c7c7"></path><rect x="191.08" y="235.62" width="7.8" height="3.91" transform="translate(1.07 -0.88) rotate(0.26)" style="fill:#590E85"></rect><path d="M216.35,237.85,216.23,263a3,3,0,0,1-5.94,0l.12-25.17Z" style="fill:#ebebeb"></path><path d="M216,245.14,215.89,263a2.63,2.63,0,0,1-5.25,0l.08-17.88Z" style="fill:#c7c7c7"></path><rect x="209.48" y="235.62" width="7.8" height="3.91" transform="translate(1.07 -0.96) rotate(0.26)" style="fill:#590E85"></rect><path d="M207.1,237.85,207,263a3,3,0,0,1-5.94,0l.11-25.17Z" style="fill:#ebebeb"></path><path d="M206.72,245.14,206.64,263a2.63,2.63,0,0,1-5.25,0l.08-17.88Z" style="fill:#37474f"></path><rect x="200.23" y="235.62" width="7.8" height="3.91" transform="translate(1.07 -0.92) rotate(0.26)" style="fill:#455a64"></rect><path d="M219.57,251.08v2.81H186.72v-2.81h5.33V252c0,.47,1.31.84,2.93.84s2.92-.37,2.92-.84v-.94h3.31V252c0,.47,1.3.84,2.92.84s2.92-.37,2.92-.84v-.94h3.31V252c0,.47,1.31.84,2.92.84s2.93-.37,2.93-.84v-.94Z" style="fill:#455a64"></path><rect x="186.72" y="253.9" width="32.85" height="1.13" style="fill:#263238"></rect><rect x="219.57" y="239.85" width="1.54" height="30.07" style="fill:#263238"></rect><rect x="294.86" y="284.17" width="104.6" height="183.03" style="fill:#455a64"></rect><rect x="294.86" y="284.17" width="104.6" height="11.22" style="fill:#263238"></rect><rect x="304.36" y="305.34" width="85.6" height="38.81" style="fill:#37474f"></rect><rect x="304.36" y="305.34" width="11.93" height="38.81" style="fill:#263238"></rect><rect x="304.36" y="355.58" width="85.6" height="38.81" style="fill:#37474f"></rect><rect x="304.36" y="355.58" width="11.93" height="38.81" style="fill:#263238"></rect><rect x="304.36" y="405.81" width="85.6" height="38.81" style="fill:#37474f"></rect><rect x="304.36" y="405.81" width="11.93" height="38.81" style="fill:#263238"></rect><rect x="354.33" y="316.69" width="1.41" height="27.47" style="fill:#263238"></rect><rect x="355.74" y="342.23" width="30.01" height="1.92" style="fill:#263238"></rect><path d="M366,314.86l-.11,23a2.71,2.71,0,1,1-5.42,0l.1-23Z" style="fill:#ebebeb"></path><path d="M365.65,321.51l-.07,16.33a2.4,2.4,0,1,1-4.8,0l.08-16.33Z" style="fill:#c7c7c7"></path><rect x="359.72" y="312.82" width="7.13" height="3.57" transform="translate(1.43 -1.64) rotate(0.26)" style="fill:#590E85"></rect><path d="M382.8,314.86l-.1,23a2.72,2.72,0,1,1-5.43,0l.11-23Z" style="fill:#ebebeb"></path><path d="M382.46,321.51l-.08,16.33a2.4,2.4,0,1,1-4.79,0l.07-16.33Z" style="fill:#c7c7c7"></path><rect x="376.53" y="312.82" width="7.13" height="3.57" transform="translate(1.43 -1.72) rotate(0.26)" style="fill:#590E85"></rect><path d="M374.36,314.86l-.11,23a2.71,2.71,0,1,1-5.42,0l.1-23Z" style="fill:#ebebeb"></path><path d="M374,321.51l-.07,16.33a2.4,2.4,0,0,1-4.8,0l.08-16.33Z" style="fill:#37474f"></path><rect x="368.08" y="312.82" width="7.13" height="3.57" transform="translate(1.43 -1.68) rotate(0.26)" style="fill:#455a64"></rect><path d="M385.75,326.94v2.57h-30v-2.57h4.87v.86c0,.43,1.2.77,2.68.77s2.67-.34,2.67-.77v-.86h3v.86c0,.43,1.2.77,2.67.77s2.68-.34,2.68-.77v-.86h3v.86c0,.43,1.2.77,2.67.77s2.67-.34,2.67-.77v-.86Z" style="fill:#455a64"></path><rect x="355.74" y="329.51" width="30.01" height="1.03" style="fill:#263238"></rect><rect x="385.75" y="316.69" width="1.41" height="27.47" style="fill:#263238"></rect><path d="M377.67,394.19H363V376.47a7.36,7.36,0,0,1,7.36-7.36h0a7.37,7.37,0,0,1,7.36,7.36Z" style="fill:#dbdbdb"></path><rect x="366.51" y="366.12" width="7.59" height="4.41" style="fill:#dbdbdb"></rect><rect x="365.18" y="364.06" width="10.26" height="3.92" style="fill:#a6a6a6"></rect><rect x="364.18" y="378.42" width="10.86" height="9.92" style="fill:#fff"></rect><path d="M360.86,394.19H346.14V376.47a7.37,7.37,0,0,1,7.36-7.36h0a7.36,7.36,0,0,1,7.36,7.36Z" style="fill:#dbdbdb"></path><rect x="349.71" y="366.12" width="7.59" height="4.41" style="fill:#dbdbdb"></rect><rect x="348.37" y="364.06" width="10.26" height="3.92" style="fill:#590E85"></rect><rect x="347.37" y="378.42" width="10.86" height="9.92" style="fill:#fff"></rect><path d="M335,369.11h3.41a5.66,5.66,0,0,1,5.66,5.66v19.42a0,0,0,0,1,0,0H329.34a0,0,0,0,1,0,0V374.77a5.66,5.66,0,0,1,5.66-5.66Z" style="fill:#dbdbdb"></path><rect x="332.9" y="366.12" width="7.59" height="4.41" style="fill:#dbdbdb"></rect><rect x="331.56" y="364.06" width="10.26" height="3.92" style="fill:#a6a6a6"></rect><rect x="330.57" y="378.42" width="10.86" height="9.92" style="fill:#fff"></rect><rect x="309.27" y="423.77" width="12.52" height="20.85" transform="translate(631.07 868.39) rotate(180)" style="fill:#590E85"></rect><rect x="307.55" y="420.22" width="15.96" height="3.55" transform="translate(631.07 844) rotate(180)" style="fill:#dbdbdb"></rect><rect x="310.88" y="428.36" width="9.31" height="12.86" transform="translate(631.07 869.58) rotate(180)" style="fill:#fff"></rect><rect x="326.56" y="423.77" width="12.52" height="20.85" transform="translate(665.64 868.39) rotate(180)" style="fill:#590E85"></rect><rect x="324.84" y="420.22" width="15.96" height="3.55" transform="translate(665.64 844) rotate(180)" style="fill:#dbdbdb"></rect><rect x="328.17" y="428.36" width="9.31" height="12.86" transform="translate(665.64 869.58) rotate(180)" style="fill:#fff"></rect><rect x="343.85" y="423.77" width="12.52" height="20.85" transform="translate(700.22 868.39) rotate(180)" style="fill:#590E85"></rect><rect x="342.13" y="420.22" width="15.96" height="3.55" transform="translate(700.22 844) rotate(180)" style="fill:#dbdbdb"></rect><rect x="345.46" y="428.36" width="9.31" height="12.86" transform="translate(700.22 869.58) rotate(180)" style="fill:#fff"></rect><rect x="57.29" y="269.96" width="385.42" height="14.21" style="fill:#455a64"></rect><polygon points="80.2 284.17 79.9 295.39 75.95 467.19 68.8 467.19 68.8 284.17 80.2 284.17" style="fill:#455a64"></polygon><polygon points="68.8 284.17 80.2 284.17 79.9 295.39 68.8 295.39 68.8 284.17" style="fill:#263238"></polygon><rect x="399.46" y="284.17" width="31.75" height="183.03" style="fill:#37474f"></rect><rect x="399.46" y="284.17" width="31.75" height="11.22" style="fill:#263238"></rect></g></svg>